<?xml version="1.0" standalone="no"?>
<!DOCTYPE svg PUBLIC "-//W3C//DTD SVG 20010904//EN"
 "http://www.w3.org/TR/2001/REC-SVG-20010904/DTD/svg10.dtd">
<svg version="1.0" xmlns="http://www.w3.org/2000/svg"
 width="697.000000pt" height="697.000000pt" viewBox="0 0 697.000000 697.000000"
 preserveAspectRatio="xMidYMid meet">
<metadata>
Created by potrace 1.11, written by Peter Selinger 2001-2013
</metadata>
<g transform="translate(0.000000,697.000000) scale(0.100000,-0.100000)"
fill="#000000" stroke="none">
<path d="M237 6558 c-124 -43 -215 -167 -225 -303 -13 -198 124 -357 323 -374
l72 -6 109 -130 c60 -71 168 -200 239 -285 72 -85 132 -157 135 -160 3 -3 54
-63 114 -135 60 -71 115 -137 122 -146 12 -13 -12 -41 -190 -220 -213 -215
-222 -228 -204 -295 7 -26 170 -204 188 -204 3 0 106 101 229 224 l223 224 88
-92 89 -91 -31 -54 -31 -54 1 -156 c1 -149 8 -301 18 -421 3 -30 7 -76 9 -101
2 -26 6 -64 9 -85 3 -22 8 -64 11 -94 3 -30 8 -66 10 -80 3 -14 7 -41 10 -60
13 -78 16 -97 25 -150 27 -150 40 -211 85 -385 59 -227 122 -423 207 -637 l70
-177 -172 -168 c-95 -92 -259 -253 -365 -358 l-194 -190 -151 -433 c-84 -239
-149 -436 -147 -439 3 -3 63 15 134 40 134 47 415 146 616 217 l118 41 148
152 c82 84 207 212 278 286 l130 134 78 -109 c181 -252 389 -485 565 -634 36
-30 67 -58 70 -61 11 -12 137 -97 180 -122 97 -55 203 -74 298 -54 245 51 656
436 1017 953 l49 71 156 -159 c85 -88 220 -227 300 -308 l145 -149 185 -65
c102 -35 284 -99 405 -140 121 -42 230 -82 242 -88 13 -6 26 -9 29 -5 6 5 -78
262 -111 342 -7 17 -27 73 -45 125 -17 52 -35 104 -40 115 -5 11 -30 82 -55
157 l-47 137 -325 318 c-179 175 -355 346 -390 380 l-65 61 60 154 c80 204
185 532 207 646 1 9 8 35 13 57 6 22 13 51 16 65 2 14 12 59 21 100 9 41 18
90 21 109 3 18 8 43 10 55 3 11 7 37 10 56 2 19 7 46 9 60 3 14 7 45 10 70 3
25 8 56 10 70 3 14 7 57 10 95 3 39 8 77 10 85 2 8 7 65 11 125 4 61 8 128 10
150 1 22 3 122 4 221 1 146 -1 188 -14 212 l-15 29 109 114 109 114 229 -228
228 -228 91 93 c98 101 117 140 94 196 -7 15 -99 115 -206 222 -107 107 -195
198 -195 203 0 7 130 168 150 187 3 3 64 75 135 160 154 184 169 202 215 254
20 23 79 93 132 156 l96 116 55 2 c275 10 432 306 287 541 -34 55 -79 95 -150
132 -39 21 -59 24 -145 24 -89 0 -106 -3 -156 -27 -115 -57 -188 -164 -197
-290 -6 -79 5 -66 -144 -190 -40 -34 -95 -80 -123 -103 -27 -24 -158 -134
-290 -245 -132 -111 -258 -218 -280 -236 l-40 -34 -200 200 c-213 212 -238
230 -300 210 -17 -6 -71 -51 -120 -100 l-90 -90 227 -228 226 -227 -46 -43
c-26 -24 -79 -75 -119 -114 l-71 -71 -59 36 c-61 37 -171 93 -238 122 -22 9
-49 21 -60 26 -95 41 -351 116 -465 135 -14 3 -47 9 -75 14 -237 44 -616 54
-900 24 -343 -36 -610 -111 -894 -251 l-153 -75 -47 45 c-25 25 -71 70 -102
100 l-57 54 224 224 c123 123 224 226 224 229 0 6 -112 122 -152 158 -36 32
-87 43 -128 26 -17 -8 -120 -102 -228 -209 -172 -172 -197 -194 -211 -182 -14
12 -205 173 -721 606 l-135 114 -2 51 c-10 245 -244 405 -476 324z"/>
</g>
</svg>
