<?xml version="1.0" encoding="utf-8"?>
<!-- Generator: Adobe Illustrator 19.2.1, SVG Export Plug-In . SVG Version: 6.00 Build 0)  -->
<svg version="1.1" id="Layer_1" xmlns="http://www.w3.org/2000/svg" xmlns:xlink="http://www.w3.org/1999/xlink" x="0px" y="0px"
	 viewBox="0 0 2828 617.6" style="enable-background:new 0 0 2828 617.6;" xml:space="preserve">
<style type="text/css">
	.st0{fill:#546E7A;}
	.st1{fill:#7A919D;}
	.st2{fill:#FF9F00;}
	.st3{fill:#FFB100;}
	.st4{fill:#FF0000;stroke:#FFB100;stroke-width:23.18;stroke-miterlimit:10;}
	.st5{fill:#FFFFFF;stroke:#FFB100;stroke-width:23.18;stroke-miterlimit:10;}
	.st6{fill:#FF0000;stroke:#FFFFFF;stroke-width:46.36;stroke-miterlimit:10;}
	.st7{fill:#FFFFFF;}
	.st8{enable-background:new    ;}
</style>
<title>brand</title>
<polygon class="st0" points="512.3,136.3 559,183 177,575.5 90,606 121,518 "/>
<polygon class="st1" points="90,606 522.8,173.6 498.6,149.4 121,518 "/>
<path class="st2" d="M681.8,7.5l2.7,2.8l-149,149l69,69l15.5-15.5c4.7-4.7,4.7-12.3,0-17l0,0l-38.1-38.1l74-87.9
	c19.1,2.4,36.6-11.1,39.1-30.2c0.2-1.5,0.3-3,0.3-4.5C695.3,24.3,690.3,14.1,681.8,7.5z"/>
<path class="st3" d="M687.8,13.5l-2.8-2.7l-149,149l-69-69l15.5-15.6c4.7-4.7,12.3-4.7,17,0l0,0l38.1,38.1l87.9-74
	c-2.5-19.1,11.1-36.6,30.3-39c1.5-0.2,2.9-0.3,4.4-0.3C671,0,681.2,5,687.8,13.5z"/>
<polygon class="st0" points="512.3,136.3 559,183 177,575.5 90,606 121,518 "/>
<polygon class="st1" points="90,606 522.8,173.6 498.6,149.4 121,518 "/>
<path class="st2" d="M681.8,7.5l2.7,2.8l-149,149l69,69l15.5-15.5c4.7-4.7,4.7-12.3,0-17l0,0l-38.1-38.1l74-87.9
	c19.1,2.4,36.6-11.1,39.1-30.2c0.2-1.5,0.3-3,0.3-4.5C695.3,24.3,690.3,14.1,681.8,7.5z"/>
<path class="st3" d="M687.8,13.5l-2.8-2.7l-149,149l-69-69l15.5-15.6c4.7-4.7,12.3-4.7,17,0l0,0l38.1,38.1l87.9-74
	c-2.5-19.1,11.1-36.6,30.3-39c1.5-0.2,2.9-0.3,4.4-0.3C671,0,681.2,5,687.8,13.5z"/>
<polygon class="st0" points="183,136.3 136.3,183 518.3,575.5 605.3,606 574.3,518 "/>
<polygon class="st1" points="605.3,606 172.5,173.6 196.7,149.4 574.3,518 "/>
<path class="st2" d="M13.5,7.5l-2.7,2.8l149,149l-69,69l-15.6-15.5c-4.7-4.7-4.7-12.3,0-17l0,0l38.1-38.1l-74-87.9
	c-19.1,2.4-36.6-11.1-39-30.3C0.1,38.1,0,36.6,0,35.1C0,24.3,5,14.1,13.5,7.5z"/>
<path class="st3" d="M7.5,13.5l2.8-2.7l149,149l69-69l-15.5-15.6c-4.7-4.7-12.3-4.7-17,0l0,0l-38.1,38.1l-87.9-74
	c2.4-19.1-11.1-36.6-30.3-39C38.1,0.1,36.6,0,35.1,0C24.3,0,14.1,5,7.5,13.5z"/>
<path class="st4" d="M344,582.9c-13.5,0-161.4-117.1-161.4-361.1c0,0,39.8-65.2,161.4-65.2s161.4,65.2,161.4,65.2
	C505.4,465.7,357.5,582.9,344,582.9z"/>
<path class="st5" d="M344,606c-4.5,0-16.5,0-46.8-28.4c-14.4-13.5-36.1-36.8-58.5-71.3c-36.2-56-79.4-150.8-79.4-284.6v-6.5l3.4-5.6
	c1.9-3.1,48.1-76.3,181.2-76.3s179.3,73.2,181.2,76.3l3.4,5.6v6.5c0,133.8-43.2,228.6-79.4,284.6c-22.3,34.5-44.1,57.8-58.5,71.3
	C360.5,606,348.5,606,344,606z M205.8,229.5c1.5,113.1,36.6,194.1,66.1,242.5c29.3,48,58.9,74.7,72.1,84.6
	c13.2-9.8,42.8-36.5,72.1-84.6c29.5-48.4,64.6-129.5,66.1-242.5c-7.8-8.8-16.9-16.3-26.9-22.4c-28.9-17.9-67.3-27.3-111.3-27.3
	s-82.5,9.4-111.3,27.3C222.6,213.2,213.6,220.7,205.8,229.5z"/>
<path class="st6" d="M344,582.9c-13.5,0-161.4-117.1-161.4-361.1c0,0,39.8-65.2,161.4-65.2s161.4,65.2,161.4,65.2
	C505.4,465.7,357.5,582.9,344,582.9z"/>
<path class="st2" d="M344,582.9c-13.5,0-161.4-117.1-161.4-361.1c0,0,39.8-65.2,161.4-65.2s161.4,65.2,161.4,65.2
	C505.4,465.7,357.5,582.9,344,582.9z"/>
<path class="st3" d="M488.6,203L488.6,203c-21.6-19.2-66-46.4-144.6-46.4c-121.7,0-161.4,65.2-161.4,65.2c0,98.3,24,176,53.6,233.7
	L488.6,203z"/>
<path class="st7" d="M347.3,262.8h92.6c0.8,0,1.6,0,2.4,0c3.7,0.1,4.4,0.8,4.4,4.6c0,16.2,0,32.4,0,48.6c0,20.8,0,41.6,0,62.3
	c0,4.8-0.5,5.3-5.3,5.3c-11.4,0-22.8,0-34.2,0c-4,0-4.6,0.6-4.7,4.6c0,6.8,0,13.6,0,20.5c0,4-0.6,4.5-4.7,4.6c-3.9,0-7.7,0.1-11.6,0
	c-2.8,0-4.1,1.1-4.1,4c0.1,4.6,0,9.2,0,13.8c0,3.5-0.9,4.4-4.3,4.4c-20.7,0-41.3,0-62,0c-3.4,0-4.2-0.9-4.2-4.2
	c-0.1-4.3,0-8.6,0-12.8c0-4.7-0.5-5.1-5.4-5.2c-3.7,0-7.3-0.1-11,0c-2.9,0.1-4-1.2-4-4c0.1-6.9,0-13.9,0-20.8c0-4.3-0.5-4.8-4.7-4.8
	c-11.4,0-22.8,0-34.2,0c-4.7,0-5.2-0.5-5.2-5c0-36.9,0-73.7,0-110.6c0-4.7,0.5-5.1,5.4-5.1L347.3,262.8L347.3,262.8L347.3,262.8z
	 M284.3,291.5L284.3,291.5c0,5.3,0,10.6,0,15.9c0,2.1,0.7,3.2,3,3c2.6-0.2,5.3-0.1,7.9,0c1.7,0,2.5-0.6,2.5-2.3
	c0-10.9,0-21.8,0-32.7c0-1.6-0.7-2.4-2.4-2.3c-2.8,0.1-5.5,0.1-8.2,0c-2.2-0.1-2.9,0.9-2.8,2.9C284.3,281.1,284.3,286.3,284.3,291.5
	L284.3,291.5z M409.6,292L409.6,292c0-5-0.1-10,0-15c0.1-2.9-0.6-4.5-3.9-4c-2,0.2-4.1,0.2-6.1,0c-3-0.3-3.8,1-3.6,3.7
	c0.1,2.3,0,4.7,0,7c0,7.5,0,15.1,0,22.6c0,4,0,4,4.1,4c1.9-0.1,3.9-0.1,5.8,0c3,0.4,3.7-1,3.6-3.7
	C409.5,301.8,409.6,296.9,409.6,292z M275.4,291.7c0-5.2-0.1-10.4,0-15.6c0.1-2.5-0.8-3.2-3.2-3.1c-2.6,0.2-5.3,0.1-7.9,0
	c-1.7,0-2.4,0.6-2.4,2.3c0,10.9,0,21.8,0,32.7c0,1.7,0.7,2.4,2.4,2.3c2.6-0.1,5.3-0.1,7.9,0c2.4,0.1,3.3-0.6,3.2-3.1
	C275.3,302.1,275.4,296.9,275.4,291.7L275.4,291.7z M320.1,292c0-5.4-0.1-10.8,0-16.2c0-2.1-0.8-2.9-2.9-2.8c-2.7,0.1-5.5,0.1-8.2,0
	c-1.6,0-2.4,0.6-2.4,2.3c0,10.9,0,21.8,0,32.6c0,1.7,0.7,2.4,2.4,2.3c2.5-0.1,5.1-0.1,7.6,0s3.6-0.7,3.5-3.4
	C320,302,320.1,297,320.1,292z M342.5,291.8L342.5,291.8c0-5.3,0-10.6,0-15.9c0-2-0.6-3-2.8-2.9c-2.6,0.1-5.3,0.1-7.9,0
	c-2-0.1-2.7,0.7-2.7,2.7c0,10.7,0,21.4,0,32.1c0,1.8,0.7,2.6,2.5,2.5c2.6-0.1,5.3-0.1,7.9,0c2.3,0.1,3.1-0.8,3-3
	C342.5,302.2,342.5,297,342.5,291.8z M351.4,291.5L351.4,291.5c0,2.8,0,5.7,0,8.5c0,10.9,0,10.9,10.9,10.2h0.3
	c1.6,0.1,2.2-0.7,2.2-2.2c0-11,0-21.9,0-32.9c0.2-1-0.5-2-1.5-2.2c-0.2,0-0.5,0-0.7,0c-2.7,0-5.5,0.1-8.2,0c-2.3-0.1-3.1,0.7-3,3
	C351.4,281.2,351.4,286.4,351.4,291.5z M387.3,291.8c0-2.9,0.1-5.7,0-8.5c-0.2-3.3,1.5-7.6-0.8-9.6s-6.5-0.4-9.8-0.6
	c-0.2,0-0.4,0-0.6,0c-1.5-0.1-2.2,0.6-2.2,2.1c0,11,0,22,0,33c0,1.6,0.7,2.2,2.2,2.1c2.8,0,5.5-0.1,8.2,0c2.2,0.1,3.1-0.6,3-3
	C387.2,302.2,387.3,297,387.3,291.8L387.3,291.8z M432,291.6c0-5.3,0-10.6,0-15.9c0-2-0.7-2.8-2.7-2.7c-2.7,0.1-5.5,0.1-8.2,0
	c-2-0.1-2.6,0.8-2.6,2.7c0.1,10.6,0.1,21.2,0,31.8c0,2.1,0.6,3,2.8,2.9c2.5-0.2,5.1-0.2,7.6,0s3.1-0.9,3.1-3.2
	C431.9,302,432,296.8,432,291.6L432,291.6z"/>
<path class="st2" d="M284.3,291.5c0-5.2,0-10.4,0-15.6c0-2,0.6-3,2.8-2.9c2.7,0.1,5.5,0.1,8.2,0c1.7-0.1,2.4,0.7,2.4,2.3
	c0,10.9,0,21.8,0,32.7c0,1.7-0.8,2.3-2.5,2.3c-2.6-0.1-5.3-0.1-7.9,0c-2.3,0.2-3-0.9-3-3C284.4,302,284.3,296.7,284.3,291.5
	L284.3,291.5L284.3,291.5z"/>
<path class="st2" d="M409.6,292c0,4.9-0.1,9.8,0,14.7c0.1,2.6-0.6,4-3.6,3.7c-1.9-0.1-3.9-0.1-5.8,0c-4.1,0-4.1,0-4.1-4
	c0-7.5,0-15.1,0-22.6c0-2.3,0.1-4.7,0-7c-0.2-2.7,0.6-4,3.6-3.7c2,0.2,4.1,0.2,6.1,0c3.3-0.5,4,1.1,3.9,4
	C409.5,282.1,409.7,287.1,409.6,292L409.6,292L409.6,292z"/>
<path class="st2" d="M275.4,291.7c0,5.2-0.1,10.4,0,15.6c0.1,2.5-0.8,3.2-3.2,3.1c-2.6-0.1-5.3-0.1-7.9,0c-1.7,0-2.4-0.6-2.4-2.3
	c0-10.9,0-21.8,0-32.7c0-1.7,0.7-2.4,2.4-2.3c2.6,0.1,5.3,0.1,7.9,0c2.4-0.1,3.3,0.6,3.2,3.1C275.3,281.3,275.4,286.5,275.4,291.7z"
	/>
<path class="st2" d="M320.1,292c0,5-0.1,10,0.1,15c0.1,2.8-0.9,3.6-3.5,3.4s-5.1-0.1-7.6,0c-1.7,0-2.4-0.6-2.4-2.3
	c0-10.9,0-21.8,0-32.6c0-1.7,0.8-2.3,2.4-2.3c2.7,0.1,5.5,0.1,8.2,0c2.1-0.1,2.9,0.7,2.9,2.8C320,281.2,320.1,286.6,320.1,292z"/>
<path class="st2" d="M342.5,291.8c0,5.2-0.1,10.4,0,15.6c0,2.2-0.8,3.1-3,3c-2.6-0.2-5.3-0.1-7.9,0c-1.9,0.1-2.5-0.8-2.5-2.5
	c0-10.7,0-21.4,0-32.1c0-1.9,0.7-2.8,2.7-2.7c2.6,0.1,5.3,0.1,7.9,0c2.2-0.1,2.9,0.9,2.8,2.9C342.5,281.2,342.6,286.5,342.5,291.8
	L342.5,291.8L342.5,291.8z"/>
<path class="st2" d="M351.4,291.5c0-5.2,0.1-10.4,0-15.5c0-2.2,0.7-3.1,3-3c2.7,0.2,5.5,0.1,8.2,0c1-0.2,2,0.4,2.2,1.5
	c0,0.2,0,0.5,0,0.7c0,11,0,21.9,0,32.9c0,1.5-0.6,2.3-2.2,2.2h-0.3c-10.9,0.7-10.9,0.7-10.9-10.2
	C351.4,297.2,351.4,294.3,351.4,291.5L351.4,291.5L351.4,291.5z"/>
<path class="st2" d="M387.3,291.8c0,5.2-0.1,10.4,0,15.6c0.1,2.3-0.8,3.1-3,3c-2.7-0.1-5.5-0.1-8.2,0c-1.5,0-2.2-0.6-2.2-2.1
	c0-11,0-22,0-33c0-1.6,0.7-2.2,2.2-2.1c0.2,0,0.4,0,0.6,0c3.3,0.2,7.6-1.4,9.8,0.6s0.6,6.3,0.8,9.6
	C387.4,286.1,387.3,289,387.3,291.8z"/>
<path class="st2" d="M432,291.6c0,5.2-0.1,10.4,0,15.6c0,2.3-0.6,3.4-3.1,3.2c-2.5-0.2-5.1-0.2-7.6,0c-2.2,0.1-2.8-0.8-2.8-2.9
	c0.1-10.6,0.1-21.2,0-31.8c0-1.9,0.6-2.8,2.6-2.7c2.7,0.1,5.5,0.1,8.2,0c2-0.1,2.7,0.7,2.7,2.7C431.9,281,432,286.3,432,291.6z"/>
<g class="st8">
	<path class="st7" d="M977.7,359c-1.3,13.5-4.3,25.3-9,35.3c-4.8,10-11,18.4-18.7,25s-16.7,11.6-27.2,14.9
		c-10.4,3.3-21.9,4.9-34.4,4.9c-13.8,0-26.2-2.7-37.4-8s-20.7-12.8-28.5-22.4c-7.9-9.6-13.9-21.2-18.2-34.6
		c-4.3-13.5-6.4-28.4-6.4-44.8v-37.5c0-16.3,2.1-31.2,6.4-44.7c4.3-13.5,10.4-25.1,18.2-34.7c7.8-9.6,17.4-17.1,28.5-22.4
		c11.2-5.3,23.6-8,37.4-8c12.5,0,24,1.7,34.4,5s19.5,8.3,27.2,14.9c7.7,6.6,13.9,14.9,18.7,24.8c4.8,10,7.8,21.7,9,35.1h-9.3
		c-2.6-23-10.7-40.5-24.1-52.5c-13.4-12-32-18-55.9-18c-12.2,0-23.2,2.4-33.2,7.1c-10,4.8-18.5,11.5-25.7,20.3s-12.7,19.3-16.6,31.6
		c-3.9,12.3-5.8,26-5.8,41.2v37.8c0,15.1,1.9,28.9,5.8,41.3c3.9,12.4,9.4,23,16.6,31.7c7.2,8.8,15.7,15.6,25.7,20.4s21,7.2,33.2,7.2
		c11.6,0,22-1.4,31.3-4.2c9.3-2.8,17.3-7.1,24.2-12.9c6.8-5.8,12.3-13.1,16.4-22c4.1-8.9,6.8-19.5,8.1-31.7L977.7,359L977.7,359z"/>
	<path class="st7" d="M1212.9,329.3c0,16.4-2.2,31.3-6.6,44.8s-10.7,25-18.9,34.6c-8.2,9.6-18.1,17.1-29.7,22.4s-24.6,8-39,8
		c-14.3,0-27.3-2.7-38.9-8s-21.6-12.8-29.8-22.4s-14.6-21.2-19.1-34.6c-4.5-13.5-6.7-28.4-6.7-44.8v-37.5c0-16.3,2.2-31.2,6.6-44.7
		c4.4-13.5,10.7-25.1,18.9-34.7c8.2-9.6,18.1-17.1,29.7-22.4c11.6-5.3,24.6-8,38.9-8c14.4,0,27.5,2.7,39.1,8s21.5,12.8,29.7,22.4
		c8.2,9.6,14.5,21.2,19,34.7c4.5,13.5,6.7,28.4,6.7,44.7v37.5H1212.9z M1203.6,291.5c0-14.7-1.9-28.1-5.8-40.4
		c-3.8-12.3-9.4-22.8-16.7-31.7c-7.3-8.9-16.2-15.8-26.7-20.7s-22.6-7.4-36.1-7.4c-13.4,0-25.4,2.5-35.8,7.4
		c-10.5,4.9-19.4,11.8-26.6,20.7c-7.3,8.9-12.8,19.5-16.6,31.7c-3.8,12.3-5.7,25.7-5.7,40.4v37.8c0,14.8,1.9,28.3,5.8,40.7
		c3.8,12.3,9.4,22.9,16.7,31.8c7.3,8.9,16.2,15.8,26.7,20.7c10.5,4.9,22.5,7.4,35.9,7.4c13.5,0,25.6-2.5,36.1-7.4
		s19.4-11.8,26.6-20.7c7.2-8.9,12.7-19.5,16.5-31.8s5.7-25.9,5.7-40.7V291.5z"/>
	<path class="st7" d="M1283.4,185.4l103,236.7l103.3-236.7h13.6v250.3h-9.3V199.1l-103.8,236.6h-7.4l-103.3-235.4v235.4h-9.3V185.4
		H1283.4z"/>
	<path class="st7" d="M1572.1,435.7V185.4h65.8c12.6,0,24,1.3,34.1,3.8s18.7,6.4,25.8,11.7c7,5.3,12.5,11.9,16.2,20
		c3.8,8.1,5.7,17.6,5.7,28.6c0,7.2-0.9,14-2.8,20.4s-4.7,12-8.4,16.9c-3.7,4.9-8.3,9.1-13.8,12.4s-11.8,5.7-18.9,7
		c7.8,1,15.1,3.3,21.8,6.9c6.8,3.6,12.6,8.1,17.6,13.5s8.9,11.6,11.7,18.5c2.8,6.9,4.2,14.1,4.2,21.7c0,11.1-1.9,21-5.7,29.6
		c-3.8,8.6-9.1,15.8-15.9,21.7c-6.8,5.8-15,10.3-24.5,13.2c-9.5,3-19.9,4.5-31.3,4.5h-81.6V435.7z M1581.3,302.8h60
		c22.8,0,40-4.4,51.6-13.2c11.6-8.8,17.4-22.4,17.4-40.8c0-18.1-6.1-31.7-18.2-40.7c-12.2-9-30.2-13.5-54.2-13.5h-56.6L1581.3,302.8
		L1581.3,302.8z M1581.3,312.1v114.3h72.4c10.5,0,20-1.3,28.5-4c8.4-2.7,15.6-6.6,21.4-11.6s10.3-11.3,13.5-18.7
		c3.2-7.4,4.7-15.7,4.7-25c0-7.2-1.4-14.1-4.1-20.7c-2.8-6.6-6.9-12.4-12.4-17.5s-12.4-9.2-20.7-12.2c-8.3-3-18-4.6-29.1-4.6
		L1581.3,312.1L1581.3,312.1z"/>
</g>
<g class="st8">
	<path class="st7" d="M1916.2,360.9h-122.6l-27.9,74.8h-10.1l93.7-250.3h11.3l93.7,250.3h-10.1L1916.2,360.9z M1797.1,351.6h115.7
		L1855,196.5L1797.1,351.6z"/>
</g>
<g class="st8">
	<path class="st7" d="M2139.1,194.7H2048v241h-9.3v-241h-91.1v-9.3h191.5V194.7z"/>
</g>
<g class="st8">
	<path class="st3" d="M2222.4,394.3H2332v41.4h-161.1V185.4h51.6v208.9H2222.4z"/>
</g>
<g class="st8">
	<path class="st3" d="M2506.1,384.1h-90.4l-17.2,51.6h-54.8l93.2-250.3h47.8l93.7,250.3h-54.8L2506.1,384.1z M2429.6,342.3h62.6
		l-31.5-93.7L2429.6,342.3z"/>
	<path class="st3" d="M2805.3,435.7h-51.6L2653.3,271v164.7h-51.6V185.4h51.6l100.6,165.1V185.4h51.4V435.7z"/>
</g>
</svg>
