<svg id="Layer_1" data-name="Layer 1" xmlns="http://www.w3.org/2000/svg" viewBox="0 0 2007.4 1583.11"><defs><style>.cls-1{fill:#546e7a;}.cls-2{fill:#7a919d;}.cls-3{fill:#ff9f00;}.cls-4{fill:#ffb100;}.cls-5,.cls-7{fill:red;}.cls-5,.cls-6{stroke:#ffb100;stroke-width:44.06px;}.cls-5,.cls-6,.cls-7{stroke-miterlimit:10;}.cls-6,.cls-8{fill:#fff;}.cls-7{stroke:#fff;stroke-width:88.13px;}.cls-9{fill:#393939;}</style></defs><title>brand2</title><polygon class="cls-1" points="1316.7 259.2 1405.5 348 679.3 1094.1 513.9 1152.1 572.8 984.8 1316.7 259.2"/><polygon class="cls-2" points="513.9 1152.1 1336.7 330.1 1290.7 284.1 572.8 984.8 513.9 1152.1"/><path class="cls-3" d="M1638.9,14.4l5.1,5.3L1360.7,302.9,1492,434.1l29.5-29.5a22.87,22.87,0,0,0,0-32.3h0L1449,299.9l140.7-167.1A66.6,66.6,0,0,0,1664,75.4a61.09,61.09,0,0,0,.6-8.6A66.38,66.38,0,0,0,1638.9,14.4Z"/><path class="cls-4" d="M1650.3,25.8l-5.3-5.1L1361.7,304,1230.5,172.8l29.5-29.7a22.87,22.87,0,0,1,32.3,0h0l72.4,72.4L1531.8,74.8A66.08,66.08,0,0,1,1589,.7a0.9,0.9,0,0,0,.5-0.1,59.33,59.33,0,0,1,8.4-.6A66.77,66.77,0,0,1,1650.3,25.8Z"/><polygon class="cls-1" points="1316.7 259.2 1405.5 348 679.3 1094.1 513.9 1152.1 572.8 984.8 1316.7 259.2"/><polygon class="cls-2" points="513.9 1152.1 1336.7 330.1 1290.7 284.1 572.8 984.8 513.9 1152.1"/><path class="cls-3" d="M1638.9,14.4l5.1,5.3L1360.7,302.9,1492,434.1l29.5-29.5a22.87,22.87,0,0,0,0-32.3h0L1449,299.9l140.7-167.1A66.6,66.6,0,0,0,1664,75.4a61.09,61.09,0,0,0,.6-8.6A66.38,66.38,0,0,0,1638.9,14.4Z"/><path class="cls-4" d="M1650.3,25.8l-5.3-5.1L1361.7,304,1230.5,172.8l29.5-29.7a22.87,22.87,0,0,1,32.3,0h0l72.4,72.4L1531.8,74.8A66.08,66.08,0,0,1,1589,.7a0.9,0.9,0,0,0,.5-0.1,59.33,59.33,0,0,1,8.4-.6A66.77,66.77,0,0,1,1650.3,25.8Z"/><polygon class="cls-1" points="690.7 259.2 601.9 348 1328.1 1094.1 1493.5 1152.1 1434.6 984.8 690.7 259.2"/><polygon class="cls-2" points="1493.5 1152.1 670.7 330.1 716.8 284.1 1434.6 984.8 1493.5 1152.1"/><path class="cls-3" d="M368.5,14.4l-5.1,5.3L646.6,302.9,515.4,434.1l-29.7-29.5a22.87,22.87,0,0,1,0-32.3h0l72.4-72.4L417.5,132.8a66.37,66.37,0,0,1-74.1-57.5V75.2a59.33,59.33,0,0,1-.6-8.4A66.38,66.38,0,0,1,368.5,14.4Z"/><path class="cls-4" d="M357.1,25.8l5.3-5.1L645.7,304,776.9,172.8l-29.6-29.7A22.88,22.88,0,0,0,715,143l-0.1.1h0l-72.4,72.4L475.5,74.8A66.37,66.37,0,0,0,418,.7h-0.1a59.32,59.32,0,0,0-8.4-.6A66.38,66.38,0,0,0,357.1,25.8Z"/><path class="cls-5" d="M996.8,1108.2c-25.7,0-306.8-222.6-306.8-686.5,0,0,75.7-123.9,306.8-123.9s306.8,123.9,306.8,123.9C1303.6,885.4,1022.4,1108.2,996.8,1108.2Z"/><path class="cls-6" d="M996.8,1152.1c-8.5,0-31.4,0-89-54-27.4-25.7-68.6-70-111.2-135.5-68.8-106.5-150.9-286.7-150.9-541V409.2l6.5-10.6c3.6-5.9,91.4-145,344.5-145s340.8,139.1,344.5,145l6.5,10.6v12.4c0,254.4-82.1,434.6-150.9,541-42.4,65.6-83.8,109.9-111.2,135.5C1028.1,1152.1,1005.3,1152.1,996.8,1152.1ZM734,436.4c2.8,215,69.6,369,125.7,461,55.7,91.3,112,142,137.1,160.8,25.1-18.6,81.4-69.4,137.1-160.8,56.1-92,122.8-246.2,125.7-461a224.55,224.55,0,0,0-51.1-42.6c-54.9-34-127.9-51.9-211.6-51.9s-156.8,17.9-211.6,51.9A216.86,216.86,0,0,0,734,436.4Z"/><path class="cls-7" d="M996.8,1108.2c-25.7,0-306.8-222.6-306.8-686.5,0,0,75.7-123.9,306.8-123.9s306.8,123.9,306.8,123.9C1303.6,885.4,1022.4,1108.2,996.8,1108.2Z"/><path class="cls-3" d="M996.8,1108.2c-25.7,0-306.8-222.6-306.8-686.5,0,0,75.7-123.9,306.8-123.9s306.8,123.9,306.8,123.9C1303.6,885.4,1022.4,1108.2,996.8,1108.2Z"/><path class="cls-4" d="M1271.6,386h0c-41.1-36.5-125.5-88.2-274.9-88.2-231.3,0-306.8,123.9-306.8,123.9,0,186.9,45.6,334.6,101.9,444.3Z"/><path class="cls-8" d="M1003,499.7h180.6c7,0.2,8.4,1.5,8.4,8.7V719.2c0,9.1-1,10.1-10.1,10.1h-65c-7.6,0-8.7,1.1-8.9,8.7v39c0,7.6-1.1,8.5-8.9,8.7-7.4,0-14.6.2-22.1,0-5.3,0-7.8,2.1-7.8,7.6,0.2,8.7,0,17.5,0,26.2,0,6.7-1.7,8.4-8.2,8.4H943.2c-6.5,0-8-1.7-8-8-0.2-8.2,0-16.3,0-24.3,0-8.9-1-9.7-10.3-9.9-7,0-13.9-.2-20.9,0-5.5.2-7.6-2.3-7.6-7.6,0.2-13.1,0-26.4,0-39.5,0-8.2-1-9.1-8.9-9.1h-65c-8.9,0-9.9-1-9.9-9.5V509.8c0-8.9,1-9.7,10.3-9.7l180.1-.4h0ZM883.3,554.2h0v30.2c0,4,1.3,6.1,5.7,5.7a125.12,125.12,0,0,1,15,0c3.2,0,4.8-1.1,4.8-4.4V523.5c0-3-1.3-4.6-4.6-4.4q-7.95.3-15.6,0c-4.2-.2-5.5,1.7-5.3,5.5v29.6h0Zm238.2,1h0c0-9.5-.2-19,0-28.5,0.2-5.5-1.1-8.5-7.4-7.6a56.21,56.21,0,0,1-11.6,0c-5.7-.6-7.2,1.9-6.8,7,0.2,4.4,0,8.9,0,13.3v43c0,7.6,0,7.6,7.8,7.6a100.9,100.9,0,0,1,11,0c5.7,0.8,7-1.9,6.8-7,0-9.2.2-18.5,0.2-27.8h0Zm-255.2-.5c0-9.9-.2-19.8,0-29.7,0.2-4.8-1.5-6.1-6.1-5.9a125.12,125.12,0,0,1-15,0c-3.2,0-4.6,1.1-4.6,4.4v62.1c0,3.2,1.3,4.6,4.6,4.4,4.9-.2,10.1-0.2,15,0,4.6,0.2,6.3-1.1,6.1-5.9-0.1-9.7,0-19.6,0-29.4h0Zm85,0.5c0-10.3-.2-20.5,0-30.8,0-4-1.5-5.5-5.5-5.3-5.1.2-10.5,0.2-15.6,0-3,0-4.6,1.1-4.6,4.4v62c0,3.2,1.3,4.6,4.6,4.4,4.8-.2,9.7-0.2,14.5,0s6.8-1.3,6.7-6.5c-0.3-9.2-.1-18.7-0.1-28.2h0Zm42.6-.3h0V524.6c0-3.8-1.1-5.7-5.3-5.5-4.9.2-10.1,0.2-15,0-3.8-.2-5.1,1.3-5.1,5.1v61c0,3.4,1.3,4.9,4.8,4.8,4.9-.2,10.1-0.2,15,0,4.4,0.2,5.9-1.5,5.7-5.7V554.9h-0.1Zm16.9-.6h0v16.1c0,20.7,0,20.7,20.7,19.4h0.6c3,0.2,4.2-1.3,4.2-4.2V523.1a3.69,3.69,0,0,0-2.8-4.2h-1.3c-5.1,0-10.5.2-15.6,0-4.4-.2-5.9,1.3-5.7,5.7-0.1,10.1-.1,19.9-0.1,29.7h0Zm68.3,0.6c0-5.5.2-10.8,0-16.2-0.4-6.3,2.8-14.5-1.5-18.3s-12.4-.8-18.6-1.1h-1.1c-2.8-.2-4.2,1.1-4.2,4V586c0,3,1.3,4.2,4.2,4,5.3,0,10.5-.2,15.6,0,4.2,0.2,5.9-1.1,5.7-5.7-0.3-9.7-.1-19.5-0.1-29.4h0Zm85-.4V524.2c0-3.8-1.3-5.3-5.1-5.1-5.1.2-10.5,0.2-15.6,0-3.8-.2-4.9,1.5-4.9,5.1,0.2,20.2.2,40.3,0,60.5,0,4,1.1,5.7,5.3,5.5a86.55,86.55,0,0,1,14.4,0c4.8,0.4,5.9-1.7,5.9-6.1-0.2-9.9,0-19.8,0-29.6h0Z"/><path class="cls-3" d="M883.3,554.2V524.5c0-3.8,1.1-5.7,5.3-5.5,5.1,0.2,10.5.2,15.6,0,3.2-.2,4.6,1.3,4.6,4.4v62.2c0,3.2-1.5,4.4-4.8,4.4-4.9-.2-10.1-0.2-15,0-4.4.4-5.7-1.7-5.7-5.7,0.2-10.1,0-20.2,0-30.1h0Z"/><path class="cls-3" d="M1121.5,555.2c0,9.3-.2,18.6,0,27.9,0.2,4.9-1.1,7.6-6.8,7a100.9,100.9,0,0,0-11,0c-7.8,0-7.8,0-7.8-7.6v-43c0-4.4.2-8.9,0-13.3-0.4-5.1,1.1-7.6,6.8-7a56.21,56.21,0,0,0,11.6,0c6.3-1,7.6,2.1,7.4,7.6-0.4,9.5,0,19-.2,28.4h0Z"/><path class="cls-3" d="M866.3,554.6c0,9.9-.2,19.8,0,29.7,0.2,4.8-1.5,6.1-6.1,5.9-4.9-.2-10.1-0.2-15,0-3.2,0-4.6-1.1-4.6-4.4V523.6c0-3.2,1.3-4.6,4.6-4.4,4.9,0.2,10.1.2,15,0,4.6-.2,6.3,1.1,6.1,5.9C866.2,534.9,866.3,544.7,866.3,554.6Z"/><path class="cls-3" d="M951.3,555.2c0,9.5-.2,19,0.2,28.5,0.2,5.3-1.7,6.8-6.7,6.5a116.92,116.92,0,0,0-14.5,0c-3.2,0-4.6-1.1-4.6-4.4v-62c0-3.2,1.5-4.4,4.6-4.4,5.1,0.2,10.5.2,15.6,0,4-.2,5.5,1.3,5.5,5.3C951.1,534.7,951.3,544.9,951.3,555.2Z"/><path class="cls-3" d="M993.9,554.8c0,9.9-.2,19.8,0,29.7,0,4.2-1.5,5.9-5.7,5.7a125.12,125.12,0,0,0-15,0c-3.6.2-4.8-1.5-4.8-4.8v-61c0-3.6,1.3-5.3,5.1-5.1,4.9,0.2,10.1.2,15,0,4.2-.2,5.5,1.7,5.3,5.5,0.1,9.9.3,20,.1,30h0Z"/><path class="cls-3" d="M1010.8,554.2c0-9.9.2-19.8,0-29.5,0-4.2,1.3-5.9,5.7-5.7a135.32,135.32,0,0,0,15.6,0,3.44,3.44,0,0,1,4.1,2.7v64.1c0,2.8-1.1,4.4-4.2,4.2h-0.6c-20.7,1.3-20.7,1.3-20.7-19.4,0.1-5.5.1-11,.1-16.4h0Z"/><path class="cls-3" d="M1079.1,554.8c0,9.9-.2,19.8,0,29.7,0.2,4.4-1.5,5.9-5.7,5.7-5.1-.2-10.5-0.2-15.6,0-2.8,0-4.2-1.1-4.2-4V523.5c0-3,1.3-4.2,4.2-4h1.1c6.3,0.4,14.4-2.7,18.6,1.1s1.1,12,1.5,18.3C1079.3,544,1079.1,549.5,1079.1,554.8Z"/><path class="cls-3" d="M1164,554.4c0,9.9-.2,19.8,0,29.7,0,4.4-1.1,6.5-5.9,6.1a86.55,86.55,0,0,0-14.4,0c-4.2.2-5.3-1.5-5.3-5.5,0.2-20.2.2-40.3,0-60.5,0-3.6,1.1-5.3,4.9-5.1,5.1,0.2,10.5.2,15.6,0,3.8-.2,5.1,1.3,5.1,5.1C1163.9,534.3,1164,544.4,1164,554.4Z"/><path class="cls-9" d="M179.8,1503c-1.3,13.5-4.3,25.3-9,35.3a75.33,75.33,0,0,1-18.7,25,77,77,0,0,1-27.2,14.9,114,114,0,0,1-34.4,4.9,86.21,86.21,0,0,1-37.4-8,80.93,80.93,0,0,1-28.5-22.4c-7.9-9.6-13.9-21.2-18.2-34.6S0,1489.7,0,1473.3v-37.5c0-16.3,2.1-31.2,6.4-44.7s10.4-25.1,18.2-34.7A80.93,80.93,0,0,1,53.1,1334a86.21,86.21,0,0,1,37.4-8,114.13,114.13,0,0,1,34.4,5,77,77,0,0,1,27.2,14.9,74.58,74.58,0,0,1,18.7,24.8q7.2,15,9,35.1h-9.3c-2.6-23-10.7-40.5-24.1-52.5s-32-18-55.9-18a77.45,77.45,0,0,0-33.2,7.1,73.83,73.83,0,0,0-25.7,20.3A94.86,94.86,0,0,0,15,1394.3c-3.9,12.3-5.8,26-5.8,41.2v37.8c0,15.1,1.9,28.9,5.8,41.3s9.4,23,16.6,31.7a73.65,73.65,0,0,0,58.9,27.6,110.41,110.41,0,0,0,31.3-4.2,67.4,67.4,0,0,0,24.2-12.9,63.5,63.5,0,0,0,16.4-22c4.1-8.9,6.8-19.5,8.1-31.7h9.3V1503h0Z"/><path class="cls-9" d="M415,1473.3c0,16.4-2.2,31.3-6.6,44.8a101.62,101.62,0,0,1-18.9,34.6,84.9,84.9,0,0,1-29.7,22.4c-11.6,5.3-24.6,8-39,8s-27.3-2.7-38.9-8a85.26,85.26,0,0,1-29.8-22.4,103.84,103.84,0,0,1-19.1-34.6c-4.5-13.5-6.7-28.4-6.7-44.8v-37.5q0-24.45,6.6-44.7c4.4-13.5,10.7-25.1,18.9-34.7a84.9,84.9,0,0,1,29.7-22.4c11.6-5.3,24.6-8,38.9-8s27.5,2.7,39.1,8a84.9,84.9,0,0,1,29.7,22.4c8.2,9.6,14.5,21.2,19,34.7s6.7,28.4,6.7,44.7l0.1,37.5h0Zm-9.3-37.8a131.67,131.67,0,0,0-5.8-40.4,91.14,91.14,0,0,0-16.7-31.7,75.24,75.24,0,0,0-26.7-20.7c-10.5-4.9-22.6-7.4-36.1-7.4s-25.4,2.5-35.8,7.4a74.65,74.65,0,0,0-26.6,20.7,93.52,93.52,0,0,0-16.6,31.7,138,138,0,0,0-5.7,40.4v37.8a133.58,133.58,0,0,0,5.8,40.7,91.59,91.59,0,0,0,16.7,31.8,75.24,75.24,0,0,0,26.7,20.7c10.5,4.9,22.5,7.4,35.9,7.4s25.6-2.5,36.1-7.4a74.65,74.65,0,0,0,26.6-20.7A92.83,92.83,0,0,0,400,1514a140,140,0,0,0,5.7-40.7v-37.8h0Z"/><path class="cls-9" d="M485.5,1329.4l103,236.7,103.3-236.7h13.6v250.3h-9.3V1343.1L592.3,1579.7h-7.4L481.6,1344.3v235.4h-9.3V1329.4h13.2Z"/><path class="cls-9" d="M774.2,1579.7V1329.4H840a145,145,0,0,1,34.1,3.8,70.23,70.23,0,0,1,25.8,11.7,51.68,51.68,0,0,1,16.2,20c3.8,8.1,5.7,17.6,5.7,28.6a70.27,70.27,0,0,1-2.8,20.4,53.51,53.51,0,0,1-8.4,16.9,48.09,48.09,0,0,1-13.8,12.4,55.29,55.29,0,0,1-18.9,7,62.43,62.43,0,0,1,21.8,6.9,66.07,66.07,0,0,1,17.6,13.5,59.83,59.83,0,0,1,11.7,18.5,57.79,57.79,0,0,1,4.2,21.7c0,11.1-1.9,21-5.7,29.6a60.74,60.74,0,0,1-15.9,21.7,69.38,69.38,0,0,1-24.5,13.2,103.53,103.53,0,0,1-31.3,4.5H774.2v-0.1h0Zm9.2-132.9h60q34.2,0,51.6-13.2t17.4-40.8c0-18.1-6.1-31.7-18.2-40.7s-30.2-13.5-54.2-13.5H783.4v108.2h0Zm0,9.3v114.3h72.4a94.86,94.86,0,0,0,28.5-4,61.12,61.12,0,0,0,21.4-11.6,50.19,50.19,0,0,0,13.5-18.7c3.2-7.4,4.7-15.7,4.7-25a54.58,54.58,0,0,0-4.1-20.7,50.35,50.35,0,0,0-12.4-17.5,59.37,59.37,0,0,0-20.7-12.2c-8.3-3-18-4.6-29.1-4.6H783.4Z"/><path class="cls-9" d="M1118.3,1504.9H995.7l-27.9,74.8H957.7l93.7-250.3h11.3l93.7,250.3h-10.1Zm-119.1-9.3h115.7l-57.8-155.1Z"/><path class="cls-9" d="M1341.2,1338.7h-91.1v241h-9.3v-241h-91.1v-9.3h191.5v9.3Z"/><path class="cls-4" d="M1424.5,1538.3h109.6v41.4H1373V1329.4h51.6l-0.1,208.9h0Z"/><path class="cls-4" d="M1708.2,1528.1h-90.4l-17.2,51.6h-54.8l93.2-250.3h47.8l93.7,250.3h-54.8Zm-76.5-41.8h62.6l-31.5-93.7Z"/><path class="cls-4" d="M2007.4,1579.7h-51.6L1855.4,1415v164.7h-51.6V1329.4h51.6L1956,1494.5V1329.4h51.4v250.3Z"/></svg>