<?xml version="1.0" encoding="utf-8"?>
<!-- Generator: Adobe Illustrator 19.2.1, SVG Export Plug-In . SVG Version: 6.00 Build 0)  -->
<svg version="1.1" id="Layer_1" xmlns="http://www.w3.org/2000/svg" xmlns:xlink="http://www.w3.org/1999/xlink" x="0px" y="0px"
	 viewBox="0 0 2272.2 1583" style="enable-background:new 0 0 2272.2 1583;" xml:space="preserve">
<style type="text/css">
	.st0{fill:#546E7A;}
	.st1{fill:#7A919D;}
	.st2{fill:#FF9F00;}
	.st3{fill:#FFB100;}
	.st4{fill:#FF0000;stroke:#FFB100;stroke-width:44.06;stroke-miterlimit:10;}
	.st5{fill:#FFFFFF;stroke:#FFB100;stroke-width:44.06;stroke-miterlimit:10;}
	.st6{fill:#FF0000;stroke:#FFFFFF;stroke-width:88.13;stroke-miterlimit:10;}
	.st7{fill:#FFFFFF;}
</style>
<title>brand</title>
<polygon class="st0" points="1316.7,259.1 1405.5,347.9 679.3,1094 513.9,1152 572.8,984.7 "/>
<polygon class="st1" points="513.9,1152 1336.7,330 1290.7,284 572.8,984.7 "/>
<path class="st2" d="M1638.9,14.3l5.1,5.3l-283.3,283.2L1492,434l29.5-29.5c8.9-8.9,8.9-23.4,0-32.3c0,0,0,0,0,0l0,0l-72.5-72.4
	l140.7-167.1c36.3,4.6,69.5-21.1,74.3-57.4c0.4-2.8,0.6-5.7,0.6-8.6C1664.6,46.2,1655.1,26.9,1638.9,14.3z"/>
<path class="st3" d="M1650.3,25.7l-5.3-5.1l-283.3,283.3l-131.2-131.2L1260,143c8.9-8.9,23.4-8.9,32.3,0c0,0,0,0,0,0l0,0l72.4,72.4
	l167.1-140.7c-4.7-36.3,20.9-69.5,57.2-74.1c0.2,0,0.3,0,0.5-0.1c2.8-0.4,5.6-0.6,8.4-0.6C1618.4,0,1637.7,9.5,1650.3,25.7z"/>
<polygon class="st0" points="1316.7,259.1 1405.5,347.9 679.3,1094 513.9,1152 572.8,984.7 "/>
<polygon class="st1" points="513.9,1152 1336.7,330 1290.7,284 572.8,984.7 "/>
<path class="st2" d="M1638.9,14.3l5.1,5.3l-283.3,283.2L1492,434l29.5-29.5c8.9-8.9,8.9-23.4,0-32.3c0,0,0,0,0,0l0,0l-72.5-72.4
	l140.7-167.1c36.3,4.6,69.5-21.1,74.3-57.4c0.4-2.8,0.6-5.7,0.6-8.6C1664.6,46.2,1655.1,26.9,1638.9,14.3z"/>
<path class="st3" d="M1650.3,25.7l-5.3-5.1l-283.3,283.3l-131.2-131.2L1260,143c8.9-8.9,23.4-8.9,32.3,0c0,0,0,0,0,0l0,0l72.4,72.4
	l167.1-140.7c-4.7-36.3,20.9-69.5,57.2-74.1c0.2,0,0.3,0,0.5-0.1c2.8-0.4,5.6-0.6,8.4-0.6C1618.4,0,1637.7,9.5,1650.3,25.7z"/>
<polygon class="st0" points="690.7,259.1 601.9,347.9 1328.1,1094 1493.5,1152 1434.6,984.7 "/>
<polygon class="st1" points="1493.5,1152 670.7,330 716.8,284 1434.6,984.7 "/>
<path class="st2" d="M368.5,14.3l-5.1,5.3l283.2,283.2L515.4,434l-29.7-29.5c-8.9-8.9-8.9-23.4,0-32.3c0,0,0,0,0,0l0,0l72.4-72.4
	L417.5,132.7c-36.3,4.6-69.5-21.2-74.1-57.5c0,0,0-0.1,0-0.1c-0.4-2.8-0.6-5.6-0.6-8.4C342.8,46.2,352.3,26.9,368.5,14.3z"/>
<path class="st3" d="M357.1,25.7l5.3-5.1l283.3,283.3l131.2-131.2L747.3,143c-8.9-8.9-23.4-9-32.3-0.1c0,0,0,0-0.1,0.1l0,0
	l-72.4,72.4L475.5,74.7c4.6-36.3-21.2-69.5-57.5-74.1c0,0-0.1,0-0.1,0c-2.8-0.4-5.6-0.6-8.4-0.6C389,0,369.7,9.5,357.1,25.7z"/>
<path class="st4" d="M996.8,1108.1c-25.7,0-306.8-222.6-306.8-686.5c0,0,75.7-123.9,306.8-123.9s306.8,123.9,306.8,123.9
	C1303.6,885.3,1022.4,1108.1,996.8,1108.1z"/>
<path class="st5" d="M996.8,1152c-8.5,0-31.4,0-89-54c-27.4-25.7-68.6-70-111.2-135.5c-68.8-106.5-150.9-286.7-150.9-541v-12.4
	l6.5-10.6c3.6-5.9,91.4-145,344.5-145s340.8,139.1,344.5,145l6.5,10.6v12.4c0,254.4-82.1,434.6-150.9,541
	c-42.4,65.6-83.8,109.9-111.2,135.5C1028.1,1152,1005.3,1152,996.8,1152z M734,436.3c2.8,215,69.6,369,125.7,461
	c55.7,91.3,112,142,137.1,160.8c25.1-18.6,81.4-69.4,137.1-160.8c56.1-92,122.8-246.2,125.7-461c-14.8-16.7-32.1-31-51.1-42.6
	c-54.9-34-127.9-51.9-211.6-51.9s-156.8,17.9-211.6,51.9C766,405.2,748.8,419.6,734,436.3z"/>
<path class="st6" d="M996.8,1108.1c-25.7,0-306.8-222.6-306.8-686.5c0,0,75.7-123.9,306.8-123.9s306.8,123.9,306.8,123.9
	C1303.6,885.3,1022.4,1108.1,996.8,1108.1z"/>
<path class="st2" d="M996.8,1108.1c-25.7,0-306.8-222.6-306.8-686.5c0,0,75.7-123.9,306.8-123.9s306.8,123.9,306.8,123.9
	C1303.6,885.3,1022.4,1108.1,996.8,1108.1z"/>
<path class="st3" d="M1271.6,385.9L1271.6,385.9c-41.1-36.5-125.5-88.2-274.9-88.2c-231.3,0-306.8,123.9-306.8,123.9
	c0,186.9,45.6,334.6,101.9,444.3L1271.6,385.9z"/>
<path class="st7" d="M1003,499.6h180.6c7,0.2,8.4,1.5,8.4,8.7v210.8c0,9.1-1,10.1-10.1,10.1h-65c-7.6,0-8.7,1.1-8.9,8.7v39
	c0,7.6-1.1,8.5-8.9,8.7c-7.4,0-14.6,0.2-22.1,0c-5.3,0-7.8,2.1-7.8,7.6c0.2,8.7,0,17.5,0,26.2c0,6.7-1.7,8.4-8.2,8.4H943.2
	c-6.5,0-8-1.7-8-8c-0.2-8.2,0-16.3,0-24.3c0-8.9-1-9.7-10.3-9.9c-7,0-13.9-0.2-20.9,0c-5.5,0.2-7.6-2.3-7.6-7.6
	c0.2-13.1,0-26.4,0-39.5c0-8.2-1-9.1-8.9-9.1h-65c-8.9,0-9.9-1-9.9-9.5V509.7c0-8.9,1-9.7,10.3-9.7L1003,499.6L1003,499.6
	L1003,499.6z M883.3,554.1L883.3,554.1v30.2c0,4,1.3,6.1,5.7,5.7c5-0.3,10-0.3,15,0c3.2,0,4.8-1.1,4.8-4.4v-62.2
	c0-3-1.3-4.6-4.6-4.4c-5.3,0.2-10.5,0.2-15.6,0c-4.2-0.2-5.5,1.7-5.3,5.5L883.3,554.1L883.3,554.1L883.3,554.1z M1121.5,555.1
	L1121.5,555.1c0-9.5-0.2-19,0-28.5c0.2-5.5-1.1-8.5-7.4-7.6c-3.9,0.4-7.7,0.4-11.6,0c-5.7-0.6-7.2,1.9-6.8,7c0.2,4.4,0,8.9,0,13.3
	v43c0,7.6,0,7.6,7.8,7.6c3.7-0.2,7.3-0.2,11,0c5.7,0.8,7-1.9,6.8-7C1121.3,573.7,1121.5,564.4,1121.5,555.1L1121.5,555.1z
	 M866.3,554.6c0-9.9-0.2-19.8,0-29.7c0.2-4.8-1.5-6.1-6.1-5.9c-5,0.3-10,0.3-15,0c-3.2,0-4.6,1.1-4.6,4.4v62.1
	c0,3.2,1.3,4.6,4.6,4.4c4.9-0.2,10.1-0.2,15,0c4.6,0.2,6.3-1.1,6.1-5.9C866.2,574.3,866.3,564.4,866.3,554.6L866.3,554.6
	L866.3,554.6z M951.3,555.1c0-10.3-0.2-20.5,0-30.8c0-4-1.5-5.5-5.5-5.3c-5.1,0.2-10.5,0.2-15.6,0c-3,0-4.6,1.1-4.6,4.4v62
	c0,3.2,1.3,4.6,4.6,4.4c4.8-0.2,9.7-0.2,14.5,0s6.8-1.3,6.7-6.5C951.1,574.1,951.3,564.6,951.3,555.1L951.3,555.1z M993.9,554.8
	L993.9,554.8v-30.3c0-3.8-1.1-5.7-5.3-5.5c-4.9,0.2-10.1,0.2-15,0c-3.8-0.2-5.1,1.3-5.1,5.1v61c0,3.4,1.3,4.9,4.8,4.8
	c4.9-0.2,10.1-0.2,15,0c4.4,0.2,5.9-1.5,5.7-5.7V554.8L993.9,554.8z M1010.8,554.2L1010.8,554.2v16.1c0,20.7,0,20.7,20.7,19.4h0.6
	c3,0.2,4.2-1.3,4.2-4.2V523c0.3-1.9-0.9-3.8-2.8-4.2h-1.3c-5.1,0-10.5,0.2-15.6,0c-4.4-0.2-5.9,1.3-5.7,5.7
	C1010.8,534.6,1010.8,544.4,1010.8,554.2L1010.8,554.2z M1079.1,554.8c0-5.5,0.2-10.8,0-16.2c-0.4-6.3,2.8-14.5-1.5-18.3
	s-12.4-0.8-18.6-1.1h-1.1c-2.8-0.2-4.2,1.1-4.2,4v62.7c0,3,1.3,4.2,4.2,4c5.3,0,10.5-0.2,15.6,0c4.2,0.2,5.9-1.1,5.7-5.7
	C1078.9,574.5,1079.1,564.7,1079.1,554.8L1079.1,554.8L1079.1,554.8z M1164.1,554.4v-30.3c0-3.8-1.3-5.3-5.1-5.1
	c-5.1,0.2-10.5,0.2-15.6,0c-3.8-0.2-4.9,1.5-4.9,5.1c0.2,20.2,0.2,40.3,0,60.5c0,4,1.1,5.7,5.3,5.5c4.8-0.4,9.6-0.4,14.4,0
	c4.8,0.4,5.9-1.7,5.9-6.1C1163.9,574.1,1164.1,564.2,1164.1,554.4L1164.1,554.4L1164.1,554.4z"/>
<path class="st2" d="M883.3,554.1v-29.7c0-3.8,1.1-5.7,5.3-5.5c5.1,0.2,10.5,0.2,15.6,0c3.2-0.2,4.6,1.3,4.6,4.4v62.2
	c0,3.2-1.5,4.4-4.8,4.4c-4.9-0.2-10.1-0.2-15,0c-4.4,0.4-5.7-1.7-5.7-5.7C883.5,574.1,883.3,564,883.3,554.1L883.3,554.1
	L883.3,554.1z"/>
<path class="st2" d="M1121.5,555.1c0,9.3-0.2,18.6,0,27.9c0.2,4.9-1.1,7.6-6.8,7c-3.7-0.2-7.3-0.2-11,0c-7.8,0-7.8,0-7.8-7.6v-43
	c0-4.4,0.2-8.9,0-13.3c-0.4-5.1,1.1-7.6,6.8-7c3.9,0.4,7.7,0.4,11.6,0c6.3-1,7.6,2.1,7.4,7.6
	C1121.3,536.2,1121.7,545.7,1121.5,555.1L1121.5,555.1L1121.5,555.1z"/>
<path class="st2" d="M866.3,554.5c0,9.9-0.2,19.8,0,29.7c0.2,4.8-1.5,6.1-6.1,5.9c-4.9-0.2-10.1-0.2-15,0c-3.2,0-4.6-1.1-4.6-4.4
	v-62.2c0-3.2,1.3-4.6,4.6-4.4c4.9,0.2,10.1,0.2,15,0c4.6-0.2,6.3,1.1,6.1,5.9C866.2,534.8,866.3,544.6,866.3,554.5z"/>
<path class="st2" d="M951.3,555.1c0,9.5-0.2,19,0.2,28.5c0.2,5.3-1.7,6.8-6.7,6.5c-4.8-0.3-9.6-0.3-14.5,0c-3.2,0-4.6-1.1-4.6-4.4
	v-62c0-3.2,1.5-4.4,4.6-4.4c5.1,0.2,10.5,0.2,15.6,0c4-0.2,5.5,1.3,5.5,5.3C951.1,534.6,951.3,544.8,951.3,555.1z"/>
<path class="st2" d="M993.9,554.7c0,9.9-0.2,19.8,0,29.7c0,4.2-1.5,5.9-5.7,5.7c-5-0.3-10-0.3-15,0c-3.6,0.2-4.8-1.5-4.8-4.8v-61
	c0-3.6,1.3-5.3,5.1-5.1c4.9,0.2,10.1,0.2,15,0c4.2-0.2,5.5,1.7,5.3,5.5C993.9,534.6,994.1,544.7,993.9,554.7L993.9,554.7
	L993.9,554.7z"/>
<path class="st2" d="M1010.8,554.1c0-9.9,0.2-19.8,0-29.5c0-4.2,1.3-5.9,5.7-5.7c5.2,0.3,10.4,0.3,15.6,0c1.9-0.4,3.7,0.8,4.1,2.7
	c0,0.1,0,0.1,0,0.2v63.9c0,2.8-1.1,4.4-4.2,4.2h-0.6c-20.7,1.3-20.7,1.3-20.7-19.4C1010.8,565,1010.8,559.5,1010.8,554.1
	L1010.8,554.1L1010.8,554.1z"/>
<path class="st2" d="M1079.1,554.7c0,9.9-0.2,19.8,0,29.7c0.2,4.4-1.5,5.9-5.7,5.7c-5.1-0.2-10.5-0.2-15.6,0c-2.8,0-4.2-1.1-4.2-4
	v-62.7c0-3,1.3-4.2,4.2-4h1.1c6.3,0.4,14.4-2.7,18.6,1.1s1.1,12,1.5,18.3C1079.3,543.9,1079.1,549.4,1079.1,554.7z"/>
<path class="st2" d="M1164,554.3c0,9.9-0.2,19.8,0,29.7c0,4.4-1.1,6.5-5.9,6.1c-4.8-0.4-9.6-0.4-14.4,0c-4.2,0.2-5.3-1.5-5.3-5.5
	c0.2-20.2,0.2-40.3,0-60.5c0-3.6,1.1-5.3,4.9-5.1c5.1,0.2,10.5,0.2,15.6,0c3.8-0.2,5.1,1.3,5.1,5.1
	C1163.9,534.2,1164,544.3,1164,554.3z"/>
<g>
	<path class="st7" d="M179.8,1502.9c-1.3,13.5-4.3,25.3-9,35.3c-4.4,9.5-10.8,18.1-18.7,25c-8,6.8-17.2,11.8-27.2,14.9
		c-11.1,3.4-22.7,5-34.4,4.9c-12.9,0.2-25.7-2.6-37.4-8c-11.1-5.2-20.8-12.9-28.5-22.4c-7.9-9.6-13.9-21.2-18.2-34.6
		S0,1489.6,0,1473.2v-37.5c0-16.3,2.1-31.2,6.4-44.7s10.4-25.1,18.2-34.7c7.7-9.5,17.4-17.2,28.5-22.4c11.7-5.4,24.5-8.2,37.4-8
		c11.7-0.1,23.3,1.6,34.4,5c10,3.1,19.2,8.1,27.2,14.9c7.9,6.9,14.3,15.3,18.7,24.8c4.8,10,7.8,21.7,9,35.1h-9.3
		c-2.6-23-10.7-40.5-24.1-52.5s-32-18-55.9-18c-11.5-0.1-22.8,2.3-33.2,7.1c-10,4.8-18.8,11.7-25.7,20.3
		c-7.5,9.4-13.1,20.1-16.6,31.6c-3.9,12.3-5.8,26-5.8,41.2v37.8c0,15.1,1.9,28.9,5.8,41.3s9.4,23,16.6,31.7
		c6.9,8.6,15.7,15.6,25.7,20.4c10.4,4.9,21.7,7.4,33.2,7.2c10.6,0.1,21.1-1.3,31.3-4.2c8.9-2.6,17.1-7,24.2-12.9
		c7-6,12.6-13.6,16.4-22c4.1-8.9,6.8-19.5,8.1-31.7h9.3L179.8,1502.9L179.8,1502.9z"/>
	<path class="st7" d="M415,1473.2c0,16.4-2.2,31.3-6.6,44.8c-4,12.7-10.4,24.4-18.9,34.6c-8.1,9.6-18.3,17.2-29.7,22.4
		c-11.6,5.3-24.6,8-39,8s-27.3-2.7-38.9-8c-11.5-5.2-21.6-12.8-29.8-22.4c-8.5-10.2-15-21.9-19.1-34.6c-4.5-13.5-6.7-28.4-6.7-44.8
		v-37.5c0-16.3,2.2-31.2,6.6-44.7c4.4-13.5,10.7-25.1,18.9-34.7c8.1-9.6,18.3-17.2,29.7-22.4c11.6-5.3,24.6-8,38.9-8
		s27.5,2.7,39.1,8c11.4,5.2,21.6,12.8,29.7,22.4c8.2,9.6,14.5,21.2,19,34.7s6.7,28.4,6.7,44.7L415,1473.2L415,1473.2L415,1473.2z
		 M405.7,1435.4c0.2-13.7-1.8-27.3-5.8-40.4c-3.4-11.6-9.1-22.3-16.7-31.7c-7.2-8.8-16.3-15.9-26.7-20.7
		c-10.5-4.9-22.6-7.4-36.1-7.4s-25.4,2.5-35.8,7.4c-10.3,4.8-19.4,11.8-26.6,20.7c-7.5,9.4-13.2,20.2-16.6,31.7
		c-3.9,13.1-5.8,26.7-5.7,40.4v37.8c-0.2,13.8,1.8,27.5,5.8,40.7c3.4,11.6,9.1,22.4,16.7,31.8c7.2,8.8,16.3,15.9,26.7,20.7
		c10.5,4.9,22.5,7.4,35.9,7.4s25.6-2.5,36.1-7.4c10.3-4.8,19.4-11.8,26.6-20.7c7.5-9.4,13.1-20.2,16.5-31.8
		c3.9-13.2,5.8-26.9,5.7-40.7L405.7,1435.4L405.7,1435.4z"/>
	<path class="st7" d="M485.5,1329.3l103,236.7l103.3-236.7h13.6v250.3h-9.3V1343l-103.8,236.6h-7.4l-103.3-235.4v235.4h-9.3v-250.3
		L485.5,1329.3L485.5,1329.3z"/>
	<path class="st7" d="M774.2,1579.6v-250.3H840c11.5-0.1,22.9,1.2,34.1,3.8c9.3,2.1,18.1,6.1,25.8,11.7c7,5.2,12.6,12.1,16.2,20
		c3.8,8.1,5.7,17.6,5.7,28.6c0.1,6.9-0.9,13.8-2.8,20.4c-1.8,6.1-4.6,11.8-8.4,16.9c-3.8,5-8.4,9.2-13.8,12.4
		c-5.8,3.5-12.2,5.8-18.9,7c7.6,0.9,15,3.3,21.8,6.9c6.6,3.5,12.5,8,17.6,13.5c5,5.4,9,11.7,11.7,18.5c2.8,6.9,4.2,14.3,4.2,21.7
		c0,11.1-1.9,21-5.7,29.6c-3.6,8.3-9,15.7-15.9,21.7c-7.2,6-15.5,10.5-24.5,13.2c-10.1,3.1-20.7,4.6-31.3,4.5h-81.6V1579.6
		L774.2,1579.6z M783.4,1446.7h60c22.8,0,40-4.4,51.6-13.2c11.6-8.8,17.4-22.4,17.4-40.8c0-18.1-6.1-31.7-18.2-40.7
		s-30.2-13.5-54.2-13.5h-56.6V1446.7L783.4,1446.7z M783.4,1456v114.3h72.4c9.6,0.1,19.3-1.2,28.5-4c7.8-2.4,15.1-6.3,21.4-11.6
		c5.9-5.1,10.5-11.5,13.5-18.7c3.2-7.4,4.7-15.7,4.7-25c0-7.1-1.4-14.1-4.1-20.7c-2.8-6.7-7.1-12.6-12.4-17.5
		c-6-5.4-13-9.6-20.7-12.2c-8.3-3-18-4.6-29.1-4.6L783.4,1456L783.4,1456z"/>
</g>
<g>
	<path class="st7" d="M1118.3,1504.8H995.7l-27.9,74.8h-10.1l93.7-250.3h11.3l93.7,250.3h-10.1L1118.3,1504.8z M999.2,1495.5h115.7
		l-57.8-155.1L999.2,1495.5z"/>
</g>
<g>
	<path class="st7" d="M1341.2,1338.6h-91.1v241h-9.3v-241h-91.1v-9.3h191.5V1338.6z"/>
</g>
<g>
	<path class="st3" d="M1424.5,1538.2h109.6v41.4H1373v-250.3h51.6L1424.5,1538.2L1424.5,1538.2z"/>
</g>
<g>
	<path class="st3" d="M1708.2,1528h-90.4l-17.2,51.6h-54.8l93.2-250.3h47.8l93.7,250.3h-54.8L1708.2,1528z M1631.7,1486.2h62.6
		l-31.5-93.7L1631.7,1486.2z"/>
	<path class="st3" d="M2007.4,1579.6h-51.6l-100.4-164.7v164.7h-51.6v-250.3h51.6l100.6,165.1v-165.1h51.4V1579.6z"/>
</g>
<path class="st7" d="M2132.5,1424c0-1,0.4-1.9,1.1-2.7c0.7-0.7,1.6-1.1,2.6-1.1c2.1,0,3.7,1.7,3.8,3.8c0,1-0.4,1.9-1.1,2.6
	c-0.7,0.7-1.7,1.1-2.6,1.1C2134.2,1427.7,2132.5,1426.1,2132.5,1424C2132.5,1424,2132.5,1424,2132.5,1424z"/>
<g>
	<path class="st7" d="M2061.5,1420.9l25.9-66.2h3.9l-28,72h-3.5l-27.9-72h3.9L2061.5,1420.9z"/>
	<path class="st7" d="M2150,1396.7h16.8v3.6H2150v26.4h-3.6v-26.4h-46.9v-2l46.2-68.4h4.3V1396.7z M2105,1396.7h41.4v-62.5l-5.6,9.2
		L2105,1396.7z"/>
	<path class="st7" d="M2178.3,1423.4c0-1,0.4-1.9,1.1-2.6c0.7-0.7,1.6-1.1,2.6-1.1c1,0,1.9,0.4,2.6,1.1c0.7,0.7,1.1,1.6,1.1,2.6
		c0,1-0.4,1.9-1.1,2.6s-1.6,1.1-2.6,1.1c-1,0-1.9-0.4-2.6-1.1C2178.6,1425.3,2178.3,1424.4,2178.3,1423.4z"/>
	<path class="st7" d="M2263.9,1387.1c0,6.3-0.6,12-1.9,17.1c-1.2,5-3.1,9.3-5.5,12.8c-2.4,3.5-5.5,6.2-9,8.1s-7.7,2.8-12.4,2.8
		c-4.7,0-8.8-0.9-12.4-2.8s-6.6-4.6-9.1-8.1c-2.5-3.5-4.4-7.8-5.7-12.8c-1.3-5-1.9-10.7-1.9-17.1v-17.8c0-6.3,0.6-12,1.9-17
		s3.1-9.4,5.6-12.9c2.5-3.5,5.5-6.3,9.1-8.1c3.6-1.9,7.7-2.8,12.4-2.8c4.7,0,8.8,0.9,12.4,2.8c3.6,1.9,6.7,4.6,9.1,8.1
		c2.5,3.5,4.3,7.8,5.6,12.9c1.3,5.1,1.9,10.7,1.9,17V1387.1z M2260.3,1369.3c0-5.5-0.5-10.6-1.6-15.2c-1-4.6-2.6-8.5-4.7-11.8
		c-2.1-3.3-4.7-5.8-7.9-7.6c-3.2-1.8-6.9-2.7-11.2-2.7c-4.3,0-8,0.9-11.2,2.7c-3.2,1.8-5.8,4.3-7.9,7.6c-2.1,3.3-3.6,7.2-4.7,11.8
		c-1,4.6-1.6,9.7-1.6,15.2v17.7c0,5.5,0.5,10.5,1.6,15s2.6,8.5,4.8,11.8c2.1,3.3,4.8,5.9,8,7.7c3.2,1.8,6.9,2.8,11.2,2.8
		c4.3,0,8-0.9,11.2-2.8c3.2-1.8,5.8-4.4,7.9-7.7c2.1-3.3,3.6-7.3,4.7-11.8c1-4.6,1.5-9.6,1.5-15V1369.3z"/>
</g>
</svg>
