<svg id="Layer_1" data-name="Layer 1" xmlns="http://www.w3.org/2000/svg" viewBox="0 0 695.28 617.59"><defs><style>.cls-1{fill:#546e7a;}.cls-2{fill:#7a919d;}.cls-3{fill:#ff9f00;}.cls-4{fill:#ffb100;}.cls-5,.cls-7{fill:red;}.cls-5,.cls-6{stroke:#ffb100;stroke-width:23.18px;}.cls-5,.cls-6,.cls-7{stroke-miterlimit:10;}.cls-6,.cls-8{fill:#fff;}.cls-7{stroke:#fff;stroke-width:46.36px;}</style></defs><title>Untitled-2</title><polygon class="cls-1" points="512.28 136.27 559.03 183.02 177 575.55 90 606.05 121 518.05 512.28 136.27"/><polygon class="cls-2" points="90 606.05 522.78 173.6 498.59 149.41 121 518.05 90 606.05"/><path class="cls-3" d="M681.79,7.5l2.68,2.79-149,149,69,69L620,212.78a12,12,0,0,0,0-17l0,0-38.09-38.09,74-87.88A35,35,0,0,0,681.79,7.5Z"/><path class="cls-4" d="M687.78,13.49L685,10.81l-149,149-69-69,15.5-15.56a12,12,0,0,1,17,0l0,0,38.09,38.09,87.88-74A35,35,0,0,1,687.78,13.49Z"/><polygon class="cls-1" points="512.28 136.27 559.03 183.02 177 575.55 90 606.05 121 518.05 512.28 136.27"/><polygon class="cls-2" points="90 606.05 522.78 173.6 498.59 149.41 121 518.05 90 606.05"/><path class="cls-3" d="M681.79,7.5l2.68,2.79-149,149,69,69L620,212.78a12,12,0,0,0,0-17l0,0-38.09-38.09,74-87.88A35,35,0,0,0,681.79,7.5Z"/><path class="cls-4" d="M687.78,13.49L685,10.81l-149,149-69-69,15.5-15.56a12,12,0,0,1,17,0l0,0,38.09,38.09,87.88-74A35,35,0,0,1,687.78,13.49Z"/><polygon class="cls-1" points="183 136.27 136.25 183.02 518.28 575.55 605.28 606.05 574.28 518.05 183 136.27"/><polygon class="cls-2" points="605.28 606.05 172.5 173.6 196.69 149.41 574.28 518.05 605.28 606.05"/><path class="cls-3" d="M13.49,7.5l-2.68,2.79,149,149-69,69L75.25,212.78a12,12,0,0,1,0-17l0,0,38.09-38.09-74-87.88A35,35,0,0,1,13.49,7.5Z"/><path class="cls-4" d="M7.5,13.49l2.79-2.68,149,149,69-69L212.78,75.25a12,12,0,0,0-17,0l0,0-38.09,38.09-87.88-74A35,35,0,0,0,7.5,13.49Z"/><path class="cls-5" d="M344,582.87c-13.52,0-161.44-117.15-161.44-361.09,0,0,39.76-65.17,161.44-65.17s161.44,65.17,161.44,65.17C505.44,465.72,357.52,582.87,344,582.87Z"/><path class="cls-6" d="M344,606c-4.52,0-16.53,0-46.79-28.39-14.35-13.46-36.14-36.75-58.46-71.27-36.21-56-79.37-150.79-79.37-284.62v-6.51l3.39-5.56c1.9-3.11,48.07-76.28,181.23-76.28s179.33,73.16,181.23,76.28l3.39,5.56v6.51c0,133.83-43.16,228.64-79.37,284.62-22.32,34.51-44.12,57.8-58.46,71.27C360.53,606,348.52,606,344,606ZM205.79,229.49c1.54,113.06,36.59,194.1,66.1,242.53,29.27,48,58.9,74.7,72.11,84.56,13.21-9.85,42.84-36.53,72.11-84.56,29.51-48.43,64.57-129.47,66.1-242.53a116.08,116.08,0,0,0-26.9-22.38C426.46,189.23,388,179.78,344,179.78s-82.45,9.45-111.32,27.32A116.08,116.08,0,0,0,205.79,229.49Z"/><path class="cls-7" d="M344,582.87c-13.52,0-161.44-117.15-161.44-361.09,0,0,39.76-65.17,161.44-65.17s161.44,65.17,161.44,65.17C505.44,465.72,357.52,582.87,344,582.87Z"/><path class="cls-3" d="M344,582.87c-13.52,0-161.44-117.15-161.44-361.09,0,0,39.76-65.17,161.44-65.17s161.44,65.17,161.44,65.17C505.44,465.72,357.52,582.87,344,582.87Z"/><path class="cls-4" d="M488.58,203h0c-21.58-19.23-66-46.4-144.58-46.4-121.68,0-161.44,65.17-161.44,65.17,0,98.27,24,176,53.56,233.71Z"/><path class="cls-8" d="M347.27,262.78h95c3.73,0.1,4.42.76,4.43,4.56V378.27c0,4.78-.48,5.27-5.25,5.28H407.25c-4,0-4.64.6-4.66,4.58V408.6c0,4-.61,4.54-4.67,4.57-3.87,0-7.74.07-11.61,0-2.79,0-4.12,1.11-4.06,4,0.1,4.58,0,9.17,0,13.75,0,3.53-.85,4.4-4.32,4.4q-31,0-62,0c-3.36,0-4.17-.86-4.23-4.17-0.07-4.28,0-8.56,0-12.83,0-4.7-.5-5.15-5.35-5.17-3.67,0-7.34-.08-11,0-2.86.06-4-1.19-4-4,0.09-6.93,0-13.85,0-20.78,0-4.29-.51-4.8-4.72-4.8H252.4c-4.69,0-5.19-.48-5.19-5V267.9c0-4.69.46-5.13,5.37-5.13h94.69Zm-63,28.67h0v15.88c0,2.13.69,3.17,3,3a70.11,70.11,0,0,1,7.94,0c1.67,0,2.48-.61,2.48-2.27V275.38c0-1.6-.66-2.4-2.4-2.34-2.75.09-5.5,0.12-8.24,0-2.2-.12-2.85.88-2.84,2.88,0.09,5.15.06,10.34,0.06,15.54h0ZM409.62,292h0c0-5-.11-10,0-15,0.09-2.87-.57-4.46-3.89-4a25.24,25.24,0,0,1-6.1,0c-3-.33-3.75,1-3.59,3.7,0.14,2.33,0,4.68,0,7v22.62c0,4,0,4,4.13,4a51.1,51.1,0,0,1,5.8,0c3,0.35,3.66-1,3.58-3.7C409.52,301.76,409.62,296.87,409.62,292Zm-134.21-.31c0-5.19-.11-10.39,0-15.57,0.07-2.45-.84-3.24-3.19-3.1-2.64.16-5.29,0.09-7.94,0-1.67,0-2.39.59-2.38,2.31q0,16.34,0,32.68c0,1.71.71,2.35,2.38,2.31,2.65-.07,5.3-0.14,7.94,0,2.35,0.14,3.26-.63,3.19-3.09-0.11-5.17,0-10.36,0-15.56v0ZM320.09,292c0-5.39-.06-10.78,0-16.17,0-2.12-.75-2.9-2.85-2.81-2.74.12-5.49,0.07-8.23,0-1.65,0-2.4.59-2.4,2.3V308c0,1.69.69,2.38,2.36,2.34,2.54-.06,5.09-0.14,7.62,0s3.64-.66,3.53-3.41C320,302,320.09,297,320.09,292Zm22.46-.22h0V275.9c0-2-.64-3-2.82-2.89-2.64.13-5.29,0.12-7.94,0-2-.08-2.71.74-2.7,2.68q0.06,16,0,32.07c0,1.78.66,2.6,2.52,2.54,2.64-.08,5.3-0.12,7.94,0,2.28,0.13,3.07-.77,3-3C342.48,302.16,342.55,297,342.55,291.78Zm8.82-.25h0v8.53c0,10.9,0,10.9,10.93,10.24h0.3c1.56,0.11,2.2-.67,2.2-2.18q0-16.46,0-32.92a1.87,1.87,0,0,0-2.21-2.17c-2.74,0-5.49.13-8.23,0-2.28-.13-3.06.74-3,3C351.44,281.17,351.37,286.35,351.37,291.53Zm35.91,0.3c0-2.85.12-5.71,0-8.55-0.17-3.31,1.51-7.62-.81-9.65s-6.45-.41-9.79-0.59h-0.61c-1.53-.1-2.22.56-2.22,2.13v33c0,1.57.68,2.18,2.21,2.15,2.75,0,5.5-.12,8.24,0,2.23,0.12,3.09-.64,3-3-0.12-5.16,0-10.37,0-15.54h0Zm44.69-.26c0-5.29,0-10.58,0-15.88,0-2-.67-2.75-2.66-2.67-2.74.11-5.5,0.11-8.24,0-2-.09-2.62.8-2.61,2.72q0.09,15.88,0,31.75c0,2.06.62,3,2.79,2.86a60.29,60.29,0,0,1,7.63,0c2.51,0.18,3.13-.92,3.08-3.21-0.08-5.19,0-10.38,0-15.57h0Z"/><path class="cls-3" d="M284.27,291.46V275.88c0-2,.64-3,2.84-2.88,2.74,0.15,5.5.12,8.24,0,1.74-.06,2.4.74,2.4,2.34V308c0,1.66-.81,2.32-2.48,2.27-2.64-.08-5.3-0.14-7.94,0-2.34.16-3-.88-3-3,0-5.29,0-10.59,0-15.88h0Z"/><path class="cls-3" d="M409.62,292c0,4.89-.1,9.78,0,14.67,0.07,2.65-.6,4-3.58,3.7a51.1,51.1,0,0,0-5.8,0c-4.09,0-4.11,0-4.13-4V283.75c0-2.34.11-4.69,0-7-0.16-2.66.62-4,3.59-3.7a25.24,25.24,0,0,0,6.1,0c3.32-.45,4,1.15,3.89,4-0.15,5,0,10,0,15h0Z"/><path class="cls-3" d="M275.41,291.67c0,5.19-.11,10.39,0,15.57,0.07,2.46-.84,3.23-3.19,3.09-2.64-.15-5.29-0.08-7.94,0-1.67,0-2.38-.6-2.38-2.31q0-16.34,0-32.68c0-1.71.72-2.35,2.38-2.31,2.65,0.07,5.3.13,7.94,0,2.35-.14,3.26.64,3.19,3.1C275.3,281.29,275.41,286.48,275.41,291.67Z"/><path class="cls-3" d="M320.09,292c0,5-.13,10,0.06,15,0.11,2.75-.92,3.6-3.53,3.41a66.79,66.79,0,0,0-7.62,0c-1.67,0-2.37-.65-2.36-2.34q0-16.32,0-32.64c0-1.72.75-2.34,2.4-2.3,2.74,0.06,5.49.11,8.23,0,2.1-.09,2.89.69,2.85,2.81C320,281.22,320.09,286.61,320.09,292Z"/><path class="cls-3" d="M342.55,291.78c0,5.19-.06,10.38,0,15.57,0,2.23-.75,3.13-3,3a77.89,77.89,0,0,0-7.94,0c-1.86.06-2.53-.76-2.52-2.54q0-16,0-32.07c0-1.94.72-2.76,2.7-2.68,2.64,0.1,5.3.12,7.94,0,2.18-.11,2.85.87,2.82,2.89-0.06,5.29,0,10.59,0,15.88h0v-0.05Z"/><path class="cls-3" d="M351.37,291.53c0-5.18.07-10.36,0-15.54,0-2.24.73-3.11,3-3,2.73,0.16,5.48.08,8.23,0a1.87,1.87,0,0,1,2.21,2.17q0,16.46,0,32.92c0,1.51-.64,2.28-2.2,2.18h-0.3c-10.9.66-10.9,0.66-10.93-10.24v-8.53h0v0Z"/><path class="cls-3" d="M387.27,291.83c0,5.19-.09,10.38,0,15.57,0.06,2.3-.8,3.07-3,3-2.74-.15-5.5-0.08-8.24,0-1.53,0-2.22-.58-2.21-2.15q0-16.49,0-33c0-1.57.69-2.24,2.22-2.13h0.61c3.34,0.18,7.56-1.37,9.79.59s0.63,6.34.81,9.65C387.39,286.12,387.27,289,387.27,291.83Z"/><path class="cls-3" d="M432,291.57c0,5.19-.08,10.38,0,15.57,0,2.28-.57,3.39-3.08,3.21a60.29,60.29,0,0,0-7.63,0c-2.17.12-2.8-.8-2.79-2.86q0.09-15.88,0-31.75c0-1.91.57-2.8,2.61-2.72,2.74,0.12,5.5.12,8.24,0,2-.08,2.69.71,2.66,2.67C431.91,281,432,286.27,432,291.57Z"/></svg>