<?xml version="1.0" encoding="utf-8"?>
<!-- Generator: Adobe Illustrator 19.2.1, SVG Export Plug-In . SVG Version: 6.00 Build 0)  -->
<svg version="1.1" id="Layer_1" xmlns="http://www.w3.org/2000/svg" xmlns:xlink="http://www.w3.org/1999/xlink" x="0px" y="0px"
	 viewBox="0 0 2828 704.4" style="enable-background:new 0 0 2828 704.4;" xml:space="preserve">
<style type="text/css">
	.st0{fill:#546E7A;}
	.st1{fill:#7A919D;}
	.st2{fill:#FF9F00;}
	.st3{fill:#FFB100;}
	.st4{fill:#FF0000;stroke:#FFB100;stroke-width:23.18;stroke-miterlimit:10;}
	.st5{fill:#FFFFFF;stroke:#FFB100;stroke-width:23.18;stroke-miterlimit:10;}
	.st6{fill:#FF0000;stroke:#FFFFFF;stroke-width:46.36;stroke-miterlimit:10;}
	.st7{fill:#FFFFFF;}
	.st8{enable-background:new    ;}
</style>
<title>brand</title>
<polygon class="st0" points="512.3,139.2 559,185.9 177,578.5 90,609 121,521 "/>
<polygon class="st1" points="90,609 522.8,176.5 498.6,152.3 121,521 "/>
<path class="st2" d="M681.8,10.4l2.7,2.8l-149,149l69,69l15.5-15.5c4.7-4.7,4.7-12.3,0-17c0,0,0,0,0,0l0,0l-38.1-38.1l74-87.9
	c19.2,2.4,36.7-11.2,39.1-30.4C696.5,30.1,691.5,18,681.8,10.4z"/>
<path class="st3" d="M687.8,16.4l-2.8-2.7l-149,149l-69-69l15.5-15.6c4.7-4.7,12.3-4.7,17,0c0,0,0,0,0,0l0,0l38.1,38.1l87.9-74
	c-2.4-19.2,11.3-36.7,30.4-39C668.1,1.7,680.2,6.7,687.8,16.4z"/>
<polygon class="st0" points="512.3,139.2 559,185.9 177,578.5 90,609 121,521 "/>
<polygon class="st1" points="90,609 522.8,176.5 498.6,152.3 121,521 "/>
<path class="st2" d="M681.8,10.4l2.7,2.8l-149,149l69,69l15.5-15.5c4.7-4.7,4.7-12.3,0-17c0,0,0,0,0,0l0,0l-38.1-38.1l74-87.9
	c19.2,2.4,36.7-11.2,39.1-30.4C696.5,30.1,691.5,18,681.8,10.4z"/>
<path class="st3" d="M687.8,16.4l-2.8-2.7l-149,149l-69-69l15.5-15.6c4.7-4.7,12.3-4.7,17,0c0,0,0,0,0,0l0,0l38.1,38.1l87.9-74
	c-2.4-19.2,11.3-36.7,30.4-39C668.1,1.7,680.2,6.7,687.8,16.4z"/>
<polygon class="st0" points="183,139.2 136.3,185.9 518.3,578.5 605.3,609 574.3,521 "/>
<polygon class="st1" points="605.3,609 172.5,176.5 196.7,152.3 574.3,521 "/>
<path class="st2" d="M13.5,10.4l-2.7,2.8l149,149l-69,69l-15.6-15.5c-4.7-4.7-4.7-12.3,0-17c0,0,0,0,0,0l0,0l38.1-38.1l-74-87.9
	c-19.2,2.4-36.7-11.3-39-30.4C-1.2,30.1,3.8,18,13.5,10.4z"/>
<path class="st3" d="M7.5,16.4l2.8-2.7l149,149l69-69l-15.5-15.6c-4.7-4.7-12.3-4.7-17,0c0,0,0,0,0,0l0,0l-38.1,38.1l-87.9-74
	c2.4-19.2-11.3-36.7-30.4-39C27.2,1.7,15.1,6.7,7.5,16.4z"/>
<path class="st4" d="M344,585.8c-13.5,0-161.4-117.1-161.4-361.1c0,0,39.8-65.2,161.4-65.2s161.4,65.2,161.4,65.2
	C505.4,468.6,357.5,585.8,344,585.8z"/>
<path class="st5" d="M344,608.9c-4.5,0-16.5,0-46.8-28.4c-14.4-13.5-36.1-36.8-58.5-71.3c-36.2-56-79.4-150.8-79.4-284.6v-6.5
	l3.4-5.6c1.9-3.1,48.1-76.3,181.2-76.3s179.3,73.2,181.2,76.3l3.4,5.6v6.5c0,133.8-43.2,228.6-79.4,284.6
	c-22.3,34.5-44.1,57.8-58.5,71.3C360.5,608.9,348.5,608.9,344,608.9z M205.8,232.4c1.5,113.1,36.6,194.1,66.1,242.5
	c29.3,48,58.9,74.7,72.1,84.6c13.2-9.8,42.8-36.5,72.1-84.6c29.5-48.4,64.6-129.5,66.1-242.5c-7.8-8.8-16.9-16.3-26.9-22.4
	c-28.9-17.9-67.3-27.3-111.3-27.3s-82.5,9.4-111.3,27.3C222.6,216.1,213.6,223.6,205.8,232.4z"/>
<path class="st6" d="M344,585.8c-13.5,0-161.4-117.1-161.4-361.1c0,0,39.8-65.2,161.4-65.2s161.4,65.2,161.4,65.2
	C505.4,468.6,357.5,585.8,344,585.8z"/>
<path class="st2" d="M344,585.8c-13.5,0-161.4-117.1-161.4-361.1c0,0,39.8-65.2,161.4-65.2s161.4,65.2,161.4,65.2
	C505.4,468.6,357.5,585.8,344,585.8z"/>
<path class="st3" d="M488.6,205.9L488.6,205.9c-21.6-19.2-66-46.4-144.6-46.4c-121.7,0-161.4,65.2-161.4,65.2
	c0,98.3,24,176,53.6,233.7L488.6,205.9z"/>
<path class="st7" d="M347.3,265.7h95c3.7,0.1,4.4,0.8,4.4,4.6v110.9c0,4.8-0.5,5.3-5.3,5.3h-34.2c-4,0-4.6,0.6-4.7,4.6v20.5
	c0,4-0.6,4.5-4.7,4.6c-3.9,0-7.7,0.1-11.6,0c-2.8,0-4.1,1.1-4.1,4c0.1,4.6,0,9.2,0,13.8c0,3.5-0.9,4.4-4.3,4.4c-20.7,0-41.3,0-62,0
	c-3.4,0-4.2-0.9-4.2-4.2c-0.1-4.3,0-8.6,0-12.8c0-4.7-0.5-5.1-5.4-5.2c-3.7,0-7.3-0.1-11,0c-2.9,0.1-4-1.2-4-4
	c0.1-6.9,0-13.9,0-20.8c0-4.3-0.5-4.8-4.7-4.8h-34.2c-4.7,0-5.2-0.5-5.2-5V270.8c0-4.7,0.5-5.1,5.4-5.1L347.3,265.7L347.3,265.7z
	 M284.3,294.4L284.3,294.4v15.9c0,2.1,0.7,3.2,3,3c2.6-0.1,5.3-0.1,7.9,0c1.7,0,2.5-0.6,2.5-2.3v-32.7c0-1.6-0.7-2.4-2.4-2.3
	c-2.8,0.1-5.5,0.1-8.2,0c-2.2-0.1-2.9,0.9-2.8,2.9C284.3,284,284.3,289.2,284.3,294.4L284.3,294.4L284.3,294.4z M409.6,294.9
	L409.6,294.9c0-5-0.1-10,0-15c0.1-2.9-0.6-4.5-3.9-4c-2,0.2-4.1,0.2-6.1,0c-3-0.3-3.8,1-3.6,3.7c0.1,2.3,0,4.7,0,7v22.6
	c0,4,0,4,4.1,4c1.9-0.1,3.9-0.1,5.8,0c3,0.4,3.7-1,3.6-3.7C409.5,304.7,409.6,299.8,409.6,294.9z M275.4,294.6
	c0-5.2-0.1-10.4,0-15.6c0.1-2.5-0.8-3.2-3.2-3.1c-2.6,0.2-5.3,0.1-7.9,0c-1.7,0-2.4,0.6-2.4,2.3c0,10.9,0,21.8,0,32.7
	c0,1.7,0.7,2.4,2.4,2.3c2.6-0.1,5.3-0.1,7.9,0c2.4,0.1,3.3-0.6,3.2-3.1C275.3,305,275.4,299.8,275.4,294.6L275.4,294.6L275.4,294.6z
	 M320.1,294.9c0-5.4-0.1-10.8,0-16.2c0-2.1-0.8-2.9-2.9-2.8c-2.7,0.1-5.5,0.1-8.2,0c-1.6,0-2.4,0.6-2.4,2.3v32.7
	c0,1.7,0.7,2.4,2.4,2.3c2.5-0.1,5.1-0.1,7.6,0s3.6-0.7,3.5-3.4C320,304.9,320.1,299.9,320.1,294.9z M342.5,294.7L342.5,294.7v-15.9
	c0-2-0.6-3-2.8-2.9c-2.6,0.1-5.3,0.1-7.9,0c-2-0.1-2.7,0.7-2.7,2.7c0,10.7,0,21.4,0,32.1c0,1.8,0.7,2.6,2.5,2.5
	c2.6-0.1,5.3-0.1,7.9,0c2.3,0.1,3.1-0.8,3-3C342.5,305.1,342.5,299.9,342.5,294.7z M351.4,294.5L351.4,294.5v8.5
	c0,10.9,0,10.9,10.9,10.2h0.3c1.6,0.1,2.2-0.7,2.2-2.2c0-11,0-21.9,0-32.9c0.2-1-0.5-2-1.5-2.2c-0.2,0-0.5,0-0.7,0
	c-2.7,0-5.5,0.1-8.2,0c-2.3-0.1-3.1,0.7-3,3C351.4,284.1,351.4,289.3,351.4,294.5z M387.3,294.8c0-2.9,0.1-5.7,0-8.5
	c-0.2-3.3,1.5-7.6-0.8-9.6s-6.5-0.4-9.8-0.6h-0.6c-1.5-0.1-2.2,0.6-2.2,2.1v33c0,1.6,0.7,2.2,2.2,2.1c2.8,0,5.5-0.1,8.2,0
	c2.2,0.1,3.1-0.6,3-3C387.2,305.1,387.3,299.9,387.3,294.8L387.3,294.8L387.3,294.8z M432,294.5c0-5.3,0-10.6,0-15.9
	c0-2-0.7-2.8-2.7-2.7c-2.7,0.1-5.5,0.1-8.2,0c-2-0.1-2.6,0.8-2.6,2.7c0.1,10.6,0.1,21.2,0,31.8c0,2.1,0.6,3,2.8,2.9
	c2.5-0.2,5.1-0.2,7.6,0c2.5,0.2,3.1-0.9,3.1-3.2C431.9,304.9,432,299.7,432,294.5L432,294.5L432,294.5z"/>
<path class="st2" d="M284.3,294.4v-15.6c0-2,0.6-3,2.8-2.9c2.7,0.1,5.5,0.1,8.2,0c1.7-0.1,2.4,0.7,2.4,2.3v32.7
	c0,1.7-0.8,2.3-2.5,2.3c-2.6-0.1-5.3-0.1-7.9,0c-2.3,0.2-3-0.9-3-3C284.3,304.9,284.3,299.6,284.3,294.4L284.3,294.4L284.3,294.4z"
	/>
<path class="st2" d="M409.6,294.9c0,4.9-0.1,9.8,0,14.7c0.1,2.6-0.6,4-3.6,3.7c-1.9-0.1-3.9-0.1-5.8,0c-4.1,0-4.1,0-4.1-4v-22.6
	c0-2.3,0.1-4.7,0-7c-0.2-2.7,0.6-4,3.6-3.7c2,0.2,4.1,0.2,6.1,0c3.3-0.5,4,1.1,3.9,4C409.5,285,409.7,290,409.6,294.9L409.6,294.9
	L409.6,294.9z"/>
<path class="st2" d="M275.4,294.6c0,5.2-0.1,10.4,0,15.6c0.1,2.5-0.8,3.2-3.2,3.1c-2.6-0.1-5.3-0.1-7.9,0c-1.7,0-2.4-0.6-2.4-2.3
	c0-10.9,0-21.8,0-32.7c0-1.7,0.7-2.4,2.4-2.3c2.6,0.1,5.3,0.1,7.9,0c2.4-0.1,3.3,0.6,3.2,3.1C275.3,284.2,275.4,289.4,275.4,294.6z"
	/>
<path class="st2" d="M320.1,294.9c0,5-0.1,10,0.1,15c0.1,2.8-0.9,3.6-3.5,3.4c-2.5-0.1-5.1-0.1-7.6,0c-1.7,0-2.4-0.6-2.4-2.3
	c0-10.9,0-21.8,0-32.6c0-1.7,0.8-2.3,2.4-2.3c2.7,0.1,5.5,0.1,8.2,0c2.1-0.1,2.9,0.7,2.9,2.8C320,284.1,320.1,289.5,320.1,294.9z"/>
<path class="st2" d="M342.5,294.7c0,5.2-0.1,10.4,0,15.6c0,2.2-0.8,3.1-3,3c-2.6-0.1-5.3-0.1-7.9,0c-1.9,0.1-2.5-0.8-2.5-2.5
	c0-10.7,0-21.4,0-32.1c0-1.9,0.7-2.8,2.7-2.7c2.6,0.1,5.3,0.1,7.9,0c2.2-0.1,2.9,0.9,2.8,2.9C342.5,284.2,342.6,289.5,342.5,294.7
	L342.5,294.7L342.5,294.7L342.5,294.7z"/>
<path class="st2" d="M351.4,294.5c0-5.2,0.1-10.4,0-15.5c0-2.2,0.7-3.1,3-3c2.7,0.2,5.5,0.1,8.2,0c1-0.2,2,0.4,2.2,1.5
	c0,0.2,0,0.5,0,0.7c0,11,0,21.9,0,32.9c0,1.5-0.6,2.3-2.2,2.2h-0.3c-10.9,0.7-10.9,0.7-10.9-10.2L351.4,294.5L351.4,294.5
	L351.4,294.5L351.4,294.5z"/>
<path class="st2" d="M387.3,294.8c0,5.2-0.1,10.4,0,15.6c0.1,2.3-0.8,3.1-3,3c-2.7-0.1-5.5-0.1-8.2,0c-1.5,0-2.2-0.6-2.2-2.1
	c0-11,0-22,0-33c0-1.6,0.7-2.2,2.2-2.1h0.6c3.3,0.2,7.6-1.4,9.8,0.6s0.6,6.3,0.8,9.6C387.4,289,387.3,291.9,387.3,294.8z"/>
<path class="st2" d="M432,294.5c0,5.2-0.1,10.4,0,15.6c0,2.3-0.6,3.4-3.1,3.2c-2.5-0.2-5.1-0.2-7.6,0c-2.2,0.1-2.8-0.8-2.8-2.9
	c0.1-10.6,0.1-21.2,0-31.8c0-1.9,0.6-2.8,2.6-2.7c2.7,0.1,5.5,0.1,8.2,0c2-0.1,2.7,0.7,2.7,2.7C431.9,283.9,432,289.2,432,294.5z"/>
<g>
	<g class="st8">
		<path class="st7" d="M977.7,246.6c-1.3,13.5-4.3,25.3-9,35.3c-4.8,10-11,18.4-18.7,25c-7.7,6.6-16.7,11.6-27.2,14.9
			c-10.4,3.3-21.9,4.9-34.4,4.9c-13.8,0-26.2-2.7-37.4-8c-11.2-5.3-20.7-12.8-28.5-22.4c-7.9-9.6-13.9-21.2-18.2-34.6
			c-4.3-13.5-6.4-28.4-6.4-44.8v-37.5c0-16.3,2.1-31.2,6.4-44.7c4.3-13.5,10.4-25.1,18.2-34.7c7.8-9.6,17.4-17.1,28.5-22.4
			c11.2-5.3,23.6-8,37.4-8c12.5,0,24,1.7,34.4,5c10.4,3.3,19.5,8.3,27.2,14.9c7.7,6.6,13.9,14.9,18.7,24.8c4.8,10,7.8,21.7,9,35.1
			h-9.3c-2.6-23-10.7-40.5-24.1-52.5c-13.4-12-32-18-55.9-18c-12.2,0-23.2,2.4-33.2,7.1c-10,4.8-18.5,11.5-25.7,20.3
			c-7.2,8.8-12.7,19.3-16.6,31.6c-3.9,12.3-5.8,26-5.8,41.2v37.8c0,15.1,1.9,28.9,5.8,41.3c3.9,12.4,9.4,23,16.6,31.7
			c7.2,8.8,15.7,15.6,25.7,20.4c10,4.8,21,7.2,33.2,7.2c11.6,0,22-1.4,31.3-4.2c9.3-2.8,17.3-7.1,24.2-12.9
			c6.8-5.8,12.3-13.1,16.4-22c4.1-8.9,6.8-19.5,8.1-31.7H977.7z"/>
		<path class="st7" d="M1212.9,216.8c0,16.4-2.2,31.3-6.6,44.8c-4.4,13.5-10.7,25-18.9,34.6c-8.2,9.6-18.1,17.1-29.7,22.4
			c-11.6,5.3-24.6,8-39,8c-14.3,0-27.3-2.7-38.9-8c-11.6-5.3-21.6-12.8-29.8-22.4s-14.6-21.2-19.1-34.6c-4.5-13.5-6.7-28.4-6.7-44.8
			v-37.5c0-16.3,2.2-31.2,6.6-44.7c4.4-13.5,10.7-25.1,18.9-34.7c8.2-9.6,18.1-17.1,29.7-22.4c11.6-5.3,24.6-8,38.9-8
			c14.4,0,27.5,2.7,39.1,8c11.6,5.3,21.5,12.8,29.7,22.4c8.2,9.6,14.5,21.2,19,34.7c4.5,13.5,6.7,28.4,6.7,44.7V216.8z M1203.6,179
			c0-14.7-1.9-28.1-5.8-40.4c-3.8-12.3-9.4-22.8-16.7-31.7c-7.3-8.9-16.2-15.8-26.7-20.7c-10.5-4.9-22.6-7.4-36.1-7.4
			c-13.4,0-25.4,2.5-35.8,7.4c-10.5,4.9-19.4,11.8-26.6,20.7c-7.3,8.9-12.8,19.5-16.6,31.7c-3.8,12.3-5.7,25.7-5.7,40.4v37.8
			c0,14.8,1.9,28.3,5.8,40.7c3.8,12.3,9.4,22.9,16.7,31.8c7.3,8.9,16.2,15.8,26.7,20.7c10.5,4.9,22.5,7.4,35.9,7.4
			c13.5,0,25.6-2.5,36.1-7.4c10.5-4.9,19.4-11.8,26.6-20.7c7.2-8.9,12.7-19.5,16.5-31.8c3.8-12.3,5.7-25.9,5.7-40.7V179z"/>
		<path class="st7" d="M1283.4,72.9l103,236.7l103.3-236.7h13.6v250.3h-9.3V86.7l-103.8,236.6h-7.4L1279.4,87.9v235.4h-9.3V72.9
			H1283.4z"/>
		<path class="st7" d="M1572.1,323.3V72.9h65.8c12.6,0,24,1.3,34.1,3.8c10.1,2.5,18.7,6.4,25.8,11.7c7,5.3,12.5,11.9,16.2,20
			c3.8,8.1,5.7,17.6,5.7,28.6c0,7.2-0.9,14-2.8,20.4s-4.7,12-8.4,16.9c-3.7,4.9-8.3,9.1-13.8,12.4c-5.5,3.3-11.8,5.7-18.9,7
			c7.8,1,15.1,3.3,21.8,6.9c6.8,3.6,12.6,8.1,17.6,13.5c5,5.4,8.9,11.6,11.7,18.5c2.8,6.9,4.2,14.1,4.2,21.7c0,11.1-1.9,21-5.7,29.6
			c-3.8,8.6-9.1,15.8-15.9,21.7c-6.8,5.8-15,10.3-24.5,13.2c-9.5,3-19.9,4.5-31.3,4.5H1572.1z M1581.3,190.4h60
			c22.8,0,40-4.4,51.6-13.2c11.6-8.8,17.4-22.4,17.4-40.8c0-18.1-6.1-31.7-18.2-40.7c-12.2-9-30.2-13.5-54.2-13.5h-56.6V190.4z
			 M1581.3,199.6V314h72.4c10.5,0,20-1.3,28.5-4c8.4-2.7,15.6-6.6,21.4-11.6c5.8-5,10.3-11.3,13.5-18.7c3.2-7.4,4.7-15.7,4.7-25
			c0-7.2-1.4-14.1-4.1-20.7c-2.8-6.6-6.9-12.4-12.4-17.5c-5.5-5.1-12.4-9.2-20.7-12.2c-8.3-3-18-4.6-29.1-4.6H1581.3z"/>
	</g>
	<g class="st8">
		<path class="st7" d="M1916.2,248.5h-122.6l-27.9,74.8h-10.1l93.7-250.3h11.3l93.7,250.3h-10.1L1916.2,248.5z M1797.1,239.2h115.7
			L1855,84.1L1797.1,239.2z"/>
	</g>
	<g class="st8">
		<path class="st7" d="M2139.1,82.2h-91.1v241h-9.3v-241h-91.1v-9.3h191.5V82.2z"/>
	</g>
	<g class="st8">
		<path class="st3" d="M2222.4,281.8H2332v41.4h-161.1V72.9h51.6V281.8z"/>
	</g>
	<g class="st8">
		<path class="st3" d="M2506.1,271.7h-90.4l-17.2,51.6h-54.8l93.2-250.3h47.8l93.7,250.3h-54.8L2506.1,271.7z M2429.6,229.9h62.6
			l-31.5-93.7L2429.6,229.9z"/>
		<path class="st3" d="M2805.3,323.3h-51.6l-100.4-164.7v164.7h-51.6V72.9h51.6L2753.9,238V72.9h51.4V323.3z"/>
	</g>
</g>
<g>
	<g class="st8">
		<path class="st7" d="M940.6,507.9h-125V631h-9V380.7h151.1v9.3H815.7v108.3h125V507.9z"/>
		<path class="st7" d="M1175.7,524.6c0,16.4-2.2,31.3-6.5,44.8c-4.3,13.5-10.4,25-18.4,34.6c-8,9.6-17.6,17.1-28.9,22.4
			c-11.3,5.3-24,8-38,8c-14,0-26.6-2.7-37.9-8c-11.3-5.3-21-12.8-29.1-22.4s-14.2-21.2-18.6-34.6c-4.4-13.5-6.5-28.4-6.5-44.8v-37.5
			c0-16.3,2.1-31.2,6.5-44.7c4.3-13.5,10.4-25.1,18.4-34.7c8-9.6,17.6-17.1,29-22.4c11.3-5.3,24-8,37.9-8c14.1,0,26.8,2.7,38.1,8
			c11.3,5.3,21,12.8,29,22.4c8,9.6,14.2,21.2,18.5,34.7c4.4,13.5,6.5,28.4,6.5,44.7V524.6z M1166.7,486.8c0-14.7-1.9-28.1-5.6-40.4
			c-3.7-12.3-9.2-22.8-16.3-31.7c-7.1-8.9-15.8-15.8-26.1-20.7c-10.3-4.9-22-7.4-35.2-7.4c-13.1,0-24.7,2.5-34.9,7.4
			c-10.2,4.9-18.9,11.8-26,20.7c-7.1,8.9-12.5,19.5-16.2,31.7c-3.7,12.3-5.5,25.7-5.5,40.4v37.8c0,14.8,1.9,28.3,5.6,40.7
			c3.7,12.3,9.2,22.9,16.3,31.8c7.1,8.9,15.8,15.8,26.1,20.7c10.3,4.9,21.9,7.4,35,7.4c13.2,0,24.9-2.5,35.2-7.4
			c10.3-4.9,18.9-11.8,26-20.7c7-8.9,12.4-19.5,16.1-31.8c3.7-12.3,5.5-25.9,5.5-40.7V486.8z"/>
		<path class="st7" d="M1324.3,523.9h-84.6V631h-9V380.7h77.7c11.6,0,22.3,1.6,32.2,4.7c9.8,3.2,18.3,7.8,25.4,13.9
			c7.1,6.1,12.6,13.7,16.6,22.6c4,8.9,5.9,19.3,5.9,30.9c0,8.9-1.4,17.3-4.3,24.9c-2.8,7.7-6.8,14.5-11.7,20.5c-5,6-10.8,11-17.4,15
			c-6.6,4-13.8,6.7-21.5,8.2l65.2,107.1v2.4h-9.6L1324.3,523.9z M1239.7,514.6h76.9c10.4,0,19.5-1.7,27.4-5.2
			c7.9-3.5,14.4-8.1,19.7-13.9c5.2-5.8,9.2-12.4,11.8-19.8c2.6-7.4,3.9-15,3.9-22.8c0-9.9-1.7-18.7-5-26.5
			c-3.4-7.8-8.1-14.4-14.3-19.8c-6.2-5.4-13.7-9.5-22.4-12.4c-8.7-2.9-18.5-4.3-29.3-4.3h-68.7V514.6z"/>
		<path class="st7" d="M1620.2,380.7v169.7c0,14.1-2.1,26.4-6.3,36.9s-10,19.2-17.5,26.2c-7.5,7-16.3,12.2-26.5,15.7
			c-10.2,3.5-21.2,5.2-33,5.2c-12,0-23-1.7-33.2-5.2c-10.2-3.5-19-8.7-26.4-15.7c-7.4-7-13.3-15.7-17.5-26.2
			c-4.2-10.5-6.4-22.8-6.4-36.9V380.7h9v169.7c0,12,1.9,22.7,5.7,32.1c3.8,9.3,9,17.2,15.7,23.5c6.6,6.3,14.5,11.1,23.5,14.4
			c9,3.3,18.9,4.9,29.5,4.9c10.5,0,20.3-1.6,29.4-4.9c9.1-3.3,16.9-8.1,23.5-14.4c6.6-6.3,11.8-14.1,15.6-23.5
			c3.8-9.3,5.7-20,5.7-32.1V380.7H1620.2z"/>
		<path class="st7" d="M1697.6,380.7L1798,617.4l100.7-236.7h13.2V631h-9V394.4L1801.6,631h-7.2l-100.7-235.4V631h-9V380.7H1697.6z"
			/>
		<path class="st7" d="M2125,571c0-7.9-1.3-14.9-4-21.1c-2.7-6.1-7-11.7-12.9-16.7c-5.9-5-13.7-9.5-23.2-13.7
			c-9.5-4.1-21.3-8.1-35.1-12c-12.4-3.4-23.6-7.1-33.5-11c-9.9-3.9-18.4-8.5-25.4-13.7c-7-5.2-12.3-11.4-16-18.6
			c-3.7-7.2-5.5-15.8-5.5-25.9c0-9.5,2.1-18.1,6.2-25.6c4.1-7.6,9.8-14,17-19.3c7.2-5.3,15.7-9.3,25.6-12.1
			c9.9-2.8,20.6-4.2,32.1-4.2c11.8,0,22.7,1.8,32.7,5.3c9.9,3.6,18.5,8.6,25.7,15c7.2,6.5,12.8,14.3,16.8,23.4c4,9.1,6,19.2,6,30.2
			h-9c0-9.3-1.7-17.9-5.2-25.7c-3.5-7.8-8.4-14.7-14.7-20.5c-6.3-5.8-13.9-10.3-22.8-13.6s-18.7-4.9-29.6-4.9
			c-11.5,0-21.7,1.4-30.7,4.2c-8.9,2.8-16.4,6.6-22.5,11.3c-6.1,4.8-10.7,10.3-13.9,16.5c-3.2,6.2-4.8,12.8-4.8,19.5
			c0,6.6,1.1,12.8,3.4,18.5c2.2,5.7,6.1,11,11.7,15.9c5.6,4.9,13.1,9.5,22.6,13.8c9.5,4.3,21.6,8.4,36.2,12.3
			c12.1,3.2,23.1,6.8,33.1,10.7c10,4,18.6,8.7,25.9,14.3c7.3,5.6,12.9,12.2,16.9,19.8c4,7.6,6,16.7,6,27.3c0,10.2-2.2,19.3-6.5,27.3
			c-4.4,8-10.3,14.6-17.8,20c-7.5,5.4-16.3,9.5-26.3,12.3c-10.1,2.8-20.8,4.2-32.2,4.2c-6.9,0-14-0.5-21.1-1.6
			c-7.1-1.1-14.1-2.8-20.8-5.2c-6.7-2.3-13-5.4-18.8-9.2c-5.8-3.8-10.9-8.4-15.2-13.9c-4.4-5.5-7.8-11.9-10.3-19.2
			c-2.5-7.3-3.8-15.6-3.8-25h9c0,8.4,1.2,15.8,3.5,22.2c2.3,6.4,5.6,12,9.6,16.8c4.1,4.8,8.8,8.9,14.2,12.1c5.4,3.3,11,5.9,17,8
			c6,2.1,12.1,3.5,18.3,4.4c6.3,0.9,12.3,1.3,18.3,1.3c10.7,0,20.6-1.3,29.6-4c9-2.6,16.8-6.3,23.3-11.1
			c6.5-4.8,11.6-10.5,15.2-17.1C2123.2,586.4,2125,579,2125,571z"/>
	</g>
</g>
</svg>
