<svg id="Layer_1" data-name="Layer 1" xmlns="http://www.w3.org/2000/svg" viewBox="0 0 695.28 617.64"><defs><style>.cls-1{fill:#748891;}.cls-2{fill:#546e7a;}.cls-3{fill:#7a919d;}.cls-4{fill:#ff9f00;}.cls-5{fill:#ffb100;}.cls-6,.cls-8{fill:red;}.cls-6,.cls-7{stroke:#ffb100;stroke-width:23.18px;}.cls-6,.cls-7,.cls-8{stroke-miterlimit:10;}.cls-7,.cls-9{fill:#fff;}.cls-8{stroke:#fff;stroke-width:46.36px;}</style></defs><title>Logo</title><polygon class="cls-1" points="187.79 416.15 143.9 416.15 76.51 416.15 123.5 370.04 76.51 323.92 143.9 323.92 187.79 323.92 187.79 370.04 187.79 416.15"/><path class="cls-2" d="M141.75,369.9l36,46.25,10-46.38S141.57,369.73,141.75,369.9Z"/><polygon class="cls-1" points="501.8 416.15 545.69 416.15 613.08 416.15 566.09 370.04 613.08 323.92 545.69 323.92 501.8 323.92 501.8 370.04 501.8 416.15"/><path class="cls-2" d="M547.84,369.9l-38,46.18-8-46.31S548,369.73,547.84,369.9Z"/><polygon class="cls-2" points="512.28 136.27 559.03 183.02 177 575.55 90 606.05 121 518.05 512.28 136.27"/><polygon class="cls-3" points="90 606.05 522.78 173.6 498.59 149.41 121 518.05 90 606.05"/><path class="cls-4" d="M681.79,7.5l2.68,2.79-149,149,69,69L620,212.78a12,12,0,0,0,0-17l-38.09-38.09,74-87.88A34.95,34.95,0,0,0,695.28,35.1,34.93,34.93,0,0,0,681.79,7.5Z"/><path class="cls-5" d="M687.78,13.49L685,10.81l-149,149-69-69L482.5,75.25a12,12,0,0,1,17,0l38.09,38.09,87.88-74A34.95,34.95,0,0,1,660.18,0,34.93,34.93,0,0,1,687.78,13.49Z"/><polygon class="cls-2" points="512.28 136.27 559.03 183.02 177 575.55 90 606.05 121 518.05 512.28 136.27"/><polygon class="cls-3" points="90 606.05 522.78 173.6 498.59 149.41 121 518.05 90 606.05"/><path class="cls-4" d="M681.79,7.5l2.68,2.79-149,149,69,69L620,212.78a12,12,0,0,0,0-17l-38.09-38.09,74-87.88A34.95,34.95,0,0,0,695.28,35.1,34.93,34.93,0,0,0,681.79,7.5Z"/><path class="cls-5" d="M687.78,13.49L685,10.81l-149,149-69-69L482.5,75.25a12,12,0,0,1,17,0l38.09,38.09,87.88-74A34.95,34.95,0,0,1,660.18,0,34.93,34.93,0,0,1,687.78,13.49Z"/><polygon class="cls-2" points="183 136.27 136.25 183.02 518.28 575.55 605.28 606.05 574.28 518.05 183 136.27"/><polygon class="cls-3" points="605.28 606.05 172.5 173.6 196.69 149.41 574.28 518.05 605.28 606.05"/><path class="cls-4" d="M13.49,7.5l-2.68,2.79,149,149-69,69L75.25,212.78a12,12,0,0,1,0-17l38.09-38.09-74-87.88A34.95,34.95,0,0,1,0,35.1,34.93,34.93,0,0,1,13.49,7.5Z"/><path class="cls-5" d="M7.5,13.49l2.79-2.68,149,149,69-69L212.78,75.25a12,12,0,0,0-17,0l-38.09,38.09-87.88-74A34.95,34.95,0,0,0,35.1,0,34.93,34.93,0,0,0,7.5,13.49Z"/><path class="cls-6" d="M344,582.87c-13.52,0-161.44-117.15-161.44-361.09,0,0,39.76-65.17,161.44-65.17s161.44,65.17,161.44,65.17C505.44,465.72,357.52,582.87,344,582.87Z"/><path class="cls-7" d="M344,606c-4.52,0-16.53,0-46.79-28.39-14.35-13.46-36.14-36.75-58.46-71.27-36.21-56-79.37-150.79-79.37-284.62v-6.51l3.39-5.56c1.9-3.11,48.07-76.28,181.23-76.28s179.33,73.16,181.23,76.28l3.39,5.56v6.51c0,133.83-43.16,228.64-79.37,284.62-22.32,34.51-44.12,57.8-58.46,71.27C360.53,606,348.52,606,344,606ZM205.79,229.49c1.54,113.06,36.59,194.1,66.1,242.53,29.27,48,58.9,74.7,72.11,84.56,13.21-9.85,42.84-36.53,72.11-84.56,29.51-48.43,64.57-129.47,66.1-242.53a116.08,116.08,0,0,0-26.9-22.38C426.46,189.23,388,179.78,344,179.78s-82.45,9.45-111.32,27.32A116.08,116.08,0,0,0,205.79,229.49Z"/><path class="cls-8" d="M344,582.87c-13.52,0-161.44-117.15-161.44-361.09,0,0,39.76-65.17,161.44-65.17s161.44,65.17,161.44,65.17C505.44,465.72,357.52,582.87,344,582.87Z"/><path class="cls-4" d="M344,582.87c-13.52,0-161.44-117.15-161.44-361.09,0,0,39.76-65.17,161.44-65.17s161.44,65.17,161.44,65.17C505.44,465.72,357.52,582.87,344,582.87Z"/><path class="cls-5" d="M488.58,203h0C467,183.77,422.56,156.6,344,156.6c-121.68,0-161.44,65.17-161.44,65.17,0,98.27,24,176,53.56,233.71Z"/><path class="cls-9" d="M273.84,450h31.84v4.61H268.35V390.11h5.49V450Z"/><path class="cls-9" d="M351.77,436.51H322.5l-6.64,18.07h-5.71l24.4-64.47h5.18l24.4,64.47h-5.67Zm-27.59-4.65H350l-12.93-35.12Z"/><path class="cls-9" d="M421.61,454.58h-5.45L379.1,399.41v55.17H373.6V390.11h5.49l37.11,55.22V390.11h5.4v64.47Z"/><rect class="cls-3" x="141.97" y="277.81" width="405.87" height="92.23"/><path class="cls-9" d="M208.17,334.58a26.26,26.26,0,0,1-2.08,8.23,19.64,19.64,0,0,1-4.62,6.52,20.88,20.88,0,0,1-7.23,4.29,29,29,0,0,1-9.85,1.54,24.49,24.49,0,0,1-10.1-2,21.6,21.6,0,0,1-7.71-5.75,26,26,0,0,1-4.9-9A38.54,38.54,0,0,1,160,326.49v-4.92a37.74,37.74,0,0,1,1.75-11.85,26.12,26.12,0,0,1,5-9.06,22.13,22.13,0,0,1,7.85-5.79,25.18,25.18,0,0,1,10.31-2,27.19,27.19,0,0,1,9.58,1.56,20.46,20.46,0,0,1,7.06,4.33,19.89,19.89,0,0,1,4.54,6.6,28.32,28.32,0,0,1,2.1,8.38h-10.5a23.64,23.64,0,0,0-1.15-5.17,11,11,0,0,0-2.31-3.9,9.58,9.58,0,0,0-3.79-2.44,16.29,16.29,0,0,0-5.54-.83,13.77,13.77,0,0,0-6.27,1.35,12,12,0,0,0-4.48,3.92,18.35,18.35,0,0,0-2.69,6.31,36.9,36.9,0,0,0-.9,8.54v5a39.61,39.61,0,0,0,.79,8.25,19.44,19.44,0,0,0,2.46,6.35,11.78,11.78,0,0,0,4.29,4.1,12.76,12.76,0,0,0,6.29,1.46,18.27,18.27,0,0,0,5.77-.79,9.84,9.84,0,0,0,3.9-2.33,10.6,10.6,0,0,0,2.4-3.79,22.78,22.78,0,0,0,1.23-5.17h10.5Z"/><path class="cls-9" d="M272.41,325.58A39.37,39.37,0,0,1,270.6,338a27,27,0,0,1-5.1,9.29,22.14,22.14,0,0,1-7.92,5.85,26.64,26.64,0,0,1-20.46,0,22.73,22.73,0,0,1-8-5.85,26.94,26.94,0,0,1-5.21-9.29,38.55,38.55,0,0,1-1.85-12.4v-3.08a38.75,38.75,0,0,1,1.85-12.42,27.54,27.54,0,0,1,5.17-9.33,22.23,22.23,0,0,1,7.94-5.88,25,25,0,0,1,10.21-2,25.26,25.26,0,0,1,10.27,2,22.19,22.19,0,0,1,8,5.88,27,27,0,0,1,5.13,9.33,39.57,39.57,0,0,1,1.81,12.42v3.08Zm-10.54-3.17a37,37,0,0,0-1-9,19.16,19.16,0,0,0-2.85-6.52,12.37,12.37,0,0,0-4.6-4,13.74,13.74,0,0,0-6.19-1.35,13.42,13.42,0,0,0-6.08,1.35,12.58,12.58,0,0,0-4.6,4,19.47,19.47,0,0,0-2.92,6.52,35.58,35.58,0,0,0-1,9v3.17a35.82,35.82,0,0,0,1,9,19.43,19.43,0,0,0,2.94,6.56,12.63,12.63,0,0,0,4.65,4,13.54,13.54,0,0,0,6.1,1.35,12.4,12.4,0,0,0,10.77-5.33q3.77-5.33,3.77-15.58v-3.17Z"/><path class="cls-9" d="M303,293.66l17.5,46.5,17.46-46.5h13.63v60.67h-10.5v-20l1-26.75-17.92,46.75h-7.54l-17.88-46.71,1,26.71v20h-10.5V293.66H303Z"/><path class="cls-9" d="M370.42,354.33V293.66h20.79a36.53,36.53,0,0,1,8.83,1,18.65,18.65,0,0,1,6.63,3,13.07,13.07,0,0,1,4.15,5.1,17.37,17.37,0,0,1,1.44,7.35,13.1,13.1,0,0,1-2.25,7.5,14.48,14.48,0,0,1-6.58,5.17,14.49,14.49,0,0,1,4.56,2.06,12.73,12.73,0,0,1,3.21,3.19,13.49,13.49,0,0,1,1.9,4,16.76,16.76,0,0,1,.63,4.58,19.17,19.17,0,0,1-1.44,7.69,14.49,14.49,0,0,1-4.17,5.54,18.4,18.4,0,0,1-6.62,3.35,31.78,31.78,0,0,1-8.81,1.13H370.42ZM381,319.2H391.3q4.92,0,7.69-2.23a7.64,7.64,0,0,0,2.77-6.31q0-4.5-2.56-6.5t-8-2H381v17Zm0,7.75v19h11.71a14.29,14.29,0,0,0,4.56-.67,9.1,9.1,0,0,0,3.31-1.9,7.8,7.8,0,0,0,2-2.94,10.36,10.36,0,0,0,.67-3.79,10.07,10.07,0,0,0-2.37-7.08q-2.38-2.58-7.71-2.58H381Z"/><path class="cls-9" d="M464.62,340.2h-23.5l-4.92,14.13h-11l22.92-60.67h9.46l23,60.67h-11Zm-20.54-8.5h17.58l-8.79-25.17Z"/><path class="cls-9" d="M532.69,302.16H513.77v52.17H503.31V302.16H484.56v-8.5h48.13v8.5Z"/><path class="cls-9" d="M468.57,214.89c-1.66-.25-4-1.41-4.68-3.27h-2.72v0.45h-0.55v-0.7h-1v-0.7h-0.81V201.1a0.72,0.72,0,0,0-.72-0.72h-3.18a0.72,0.72,0,0,0-.72.72v2.31l-3.82,8v0.7H433.85v-0.6c-4.93,0-7-3.82-8.56-6.64H407.68v-0.5h-3.93v-0.08a0.72,0.72,0,0,0-.72-0.72h-0.62a0.72,0.72,0,0,0-.69-0.5l-25.83-.81a0.72,0.72,0,0,0-.59.3h-0.92a0.72,0.72,0,0,0-.72.72v0.28h-1.51v-1.69a0.72,0.72,0,0,0-.72-0.72h-3.67a0.75,0.75,0,0,0-1.45-.1h-9.11a0.31,0.31,0,0,0-.25-0.14h-1.39a0.31,0.31,0,0,0-.25.14h-0.46v-0.25l-0.75-.5v1.11h1.16v0.51a0.32,0.32,0,0,0,.32.32h0.32v0.23a0.12,0.12,0,0,0,.12.12h0a0.66,0.66,0,0,0-.47.28h-0.43v1.91H299a1.92,1.92,0,0,0-1.31.1,5.06,5.06,0,0,0-1,.7l-2.3,2.62H293l-1.21,1.71h1l-1.95,2.21h-1l0,0.31c-2.64.18-15.1,2.52-16.94,2.91a9.23,9.23,0,0,1-5.23,0,13,13,0,0,0-6.74-1.41c-3.12.3-33.62,3.62-34,4.53a2.32,2.32,0,0,1-.17.31c-0.09-.26-0.27-0.44-0.54-0.31-0.46.23-.91,0.6-0.4,3.12s2.72,19.63,2.82,21.34,1.11,1.81,1.51,1.51l0-.22a2.68,2.68,0,0,0,1.95-.28c2.11-.91,56.77-19.53,59-20.23l2.21-.09v1.08a0.72,0.72,0,0,0,.37.63h-0.07a3.23,3.23,0,0,0,.4,3.22c0.91,1.31.4,3.42-.2,5.33s-2.62,7.55-3.93,10.87,0.1,4.53,1.21,5.44,5,1.51,7.25,1,2.21-2,2.21-2.42a9.11,9.11,0,0,1,.3-2.52c0.3-1,4.53-10.77,5.33-12.68a9.06,9.06,0,0,1,2.8-3.73c1.22,1.94,2.41,2.92,3.94,2.92s5.14-.1,7.45-0.1a4.38,4.38,0,0,0,4-2.62h1.94l0.28,0.7-0.3,2.62,0.5,0.2,1-3.52h0.12a0.72,0.72,0,0,0,.72-0.72v-4.38h0.94v1.41h1.76c2.34,14.45,10.33,31.21,29.51,42.85l1-1.58,5.64-8.9,1.91-3c-15.53-10.61-20.78-23-22.45-34.28l13.29-.54v0a0.72,0.72,0,0,0,.72.72h2v0.28a0.72,0.72,0,0,0,.72.72,19.25,19.25,0,0,0,2.88-.21c1.09-.21,4.45-1.3,5.35-1.5a24.36,24.36,0,0,1,4.23-.3c1.51,0,25.34-.81,25.34-0.81a0.72,0.72,0,0,0,.64-0.4H403a0.72,0.72,0,0,0,.5-0.2h0.73v-1.21h20.33v0.5h1.81v-0.5h29.09v0.4h2v-1.43a0.8,0.8,0,0,1,.28.42h0.93V216.1h1.91v-0.6h0.55V216h7.45v-1.11h-0.05Zm-15.9-5.72a2.33,2.33,0,0,1,2.34-2.34h2.17a0.72,0.72,0,0,1,.72.72v2a0.72,0.72,0,0,1-.72.72H453.4a0.72,0.72,0,0,1-.72-0.72v-0.36Zm-28.89.28v2.62H406.57v-1.61h-2.82v-0.91h3.93v-0.2h11.07v0.1h5Zm-9.16-4.13a0.5,0.5,0,1,1-.5.5A0.5,0.5,0,0,1,414.63,205.33Zm-2.21,0a0.5,0.5,0,1,1-.5.5A0.5,0.5,0,0,1,412.41,205.33Zm-2.21,0a0.5,0.5,0,1,1-.5.5A0.5,0.5,0,0,1,410.2,205.33Zm-53.63-2.8h0a0.12,0.12,0,0,0,.12-0.12v-0.23H357a0.32,0.32,0,0,0,.32-0.32v-0.51h6.93a16.12,16.12,0,0,1-7.18,1.44A0.67,0.67,0,0,0,356.57,202.54ZM320.42,231.8c-2.32,0-5.95.1-7.45,0.1-1.13,0-2.13-.74-3.33-2.67a2,2,0,0,0,.62-1.56,1.73,1.73,0,0,0-.81-1,0.66,0.66,0,0,0,.77-0.45l0-2.39a11.13,11.13,0,0,0,1.32.73c0.6,0.3,1.21.4,1.61,2.21s2.42,3.12,4,3.52c0.88,0.22,1.11-.3.2-0.5a4.62,4.62,0,0,1-3.22-3.12,5.11,5.11,0,0,1,1.21-3.52l1.91-.1,0.18-.47,6.16-.25v6.94a0.72,0.72,0,0,0,.09.33A3.56,3.56,0,0,1,320.42,231.8Zm78.51-21.36a0.72,0.72,0,0,1-.72.72h-6.8a0.72,0.72,0,0,1-.72-0.72v-0.28h-5.13v0.28a0.72,0.72,0,0,1-.72.72H378a0.72,0.72,0,0,1-.72-0.72v-0.28h-0.81v-0.81h0.81V209a0.72,0.72,0,0,1,.72-0.72h6.8a0.72,0.72,0,0,1,.72.72v0.38h5.13V209a0.72,0.72,0,0,1,.72-0.72h6.8a0.72,0.72,0,0,1,.72.72v0.38h2.31v0.81h-2.31v0.28Zm5.33,6.46v-0.6h2.31V215.5h17.21v1.21h0.81v0.2H404.26Zm50-.8v0.8H426.4v-0.2h1.11v-0.4h6.34V215.5h16.51v0.6h3.93Z"/><path class="cls-9" d="M344,477.17h37.35c1.47,0,1.74.3,1.74,1.79q0,9.55,0,19.1,0,12.25,0,24.5c0,1.88-.19,2.07-2.06,2.07H367.55c-1.59,0-1.83.24-1.83,1.8,0,2.68,0,5.36,0,8,0,1.56-.24,1.79-1.83,1.8s-3,0-4.56,0a1.34,1.34,0,0,0-1.59,1.58c0,1.8,0,3.6,0,5.4,0,1.39-.33,1.73-1.7,1.73q-12.19,0-24.38,0c-1.32,0-1.64-.34-1.66-1.64,0-1.68,0-3.36,0-5,0-1.85-.2-2-2.1-2-1.44,0-2.88,0-4.32,0A1.33,1.33,0,0,1,322,534.7c0-2.72,0-5.44,0-8.17,0-1.69-.2-1.89-1.86-1.89H306.67c-1.84,0-2-.19-2-2q0-21.74,0-43.48c0-1.84.18-2,2.11-2H344Zm-24.76,11.27h0c0,2.08,0,4.16,0,6.24a1,1,0,0,0,1.19,1.18c1-.07,2.08,0,3.12,0a0.8,0.8,0,0,0,1-.89q0-6.42,0-12.84a0.79,0.79,0,0,0-.94-0.92c-1.08,0-2.16,0-3.24,0a0.92,0.92,0,0,0-1.11,1.13C319.22,484.36,319.21,486.4,319.21,488.44Zm49.27,0.21h0c0-2,0-3.93,0-5.89,0-1.13-.22-1.75-1.53-1.58a9.92,9.92,0,0,1-2.4,0c-1.17-.13-1.47.41-1.41,1.45s0,1.84,0,2.76c0,3,0,5.93,0,8.89,0,1.56,0,1.56,1.62,1.57a20.08,20.08,0,0,1,2.28,0c1.17,0.14,1.44-.41,1.41-1.45C368.44,492.49,368.48,490.57,368.48,488.65Zm-52.75-.12c0-2,0-4.08,0-6.12a1,1,0,0,0-1.25-1.22c-1,.06-2.08,0-3.12,0a0.77,0.77,0,0,0-.94.91q0,6.42,0,12.84a0.77,0.77,0,0,0,.93.91c1,0,2.08-.05,3.12,0a1,1,0,0,0,1.25-1.22C315.68,492.61,315.72,490.57,315.72,488.53Zm17.56,0.13c0-2.12,0-4.24,0-6.35a0.91,0.91,0,0,0-1.12-1.1c-1.08,0-2.16,0-3.24,0a0.78,0.78,0,0,0-.94.91q0,6.41,0,12.83a0.78,0.78,0,0,0,.93.92c1,0,2-.06,3,0a1.08,1.08,0,0,0,1.39-1.34C333.23,492.57,333.29,490.61,333.29,488.65Zm8.83-.08h0c0-2.08,0-4.16,0-6.24a0.92,0.92,0,0,0-1.11-1.14c-1,.05-2.08,0-3.12,0a0.88,0.88,0,0,0-1.06,1.05q0,6.3,0,12.6a0.83,0.83,0,0,0,1,1c1,0,2.08,0,3.12,0a1,1,0,0,0,1.19-1.18C342.09,492.65,342.11,490.61,342.11,488.57Zm3.47-.1h0c0,1.12,0,2.24,0,3.35,0,4.28,0,4.28,4.3,4H350a0.72,0.72,0,0,0,.86-0.86q0-6.47,0-12.94a0.73,0.73,0,0,0-.87-0.85c-1.08,0-2.16.05-3.23,0a1,1,0,0,0-1.18,1.17C345.61,484.4,345.58,486.44,345.58,488.47Zm14.11,0.12c0-1.12,0-2.24,0-3.36-0.07-1.3.59-3-.32-3.79s-2.53-.16-3.85-0.23h-0.24a0.71,0.71,0,0,0-.87.84q0,6.48,0,13a0.73,0.73,0,0,0,.87.85c1.08,0,2.16,0,3.24,0a1,1,0,0,0,1.19-1.16C359.66,492.67,359.69,490.63,359.69,488.59Zm17.56-.1c0-2.08,0-4.16,0-6.24a0.86,0.86,0,0,0-1-1c-1.08,0-2.16,0-3.24,0a0.86,0.86,0,0,0-1,1.07q0,6.24,0,12.48a0.91,0.91,0,0,0,1.1,1.13,23.7,23.7,0,0,1,3,0c1,0.07,1.23-.36,1.21-1.26C377.22,492.57,377.25,490.53,377.26,488.49Z"/><path class="cls-4" d="M319.21,488.44c0-2,0-4.08,0-6.12a0.92,0.92,0,0,1,1.11-1.13c1.08,0.06,2.16,0,3.24,0a0.79,0.79,0,0,1,.94.92q0,6.42,0,12.84a0.8,0.8,0,0,1-1,.89c-1,0-2.08-.06-3.12,0a1,1,0,0,1-1.19-1.18c0-2.08,0-4.16,0-6.24h0Z"/><path class="cls-4" d="M368.48,488.65c0,1.92,0,3.84,0,5.77,0,1-.24,1.59-1.41,1.45a20.08,20.08,0,0,0-2.28,0c-1.61,0-1.62,0-1.62-1.57,0-3,0-5.93,0-8.89,0-.92,0-1.84,0-2.76s0.24-1.58,1.41-1.45a9.92,9.92,0,0,0,2.4,0c1.31-.18,1.56.45,1.53,1.58-0.06,2,0,3.92,0,5.89h0Z"/><path class="cls-4" d="M315.72,488.53c0,2,0,4.08,0,6.12a1,1,0,0,1-1.25,1.22c-1-.06-2.08,0-3.12,0a0.77,0.77,0,0,1-.93-0.91q0-6.42,0-12.84a0.77,0.77,0,0,1,.94-0.91c1,0,2.08.05,3.12,0a1,1,0,0,1,1.25,1.22C315.68,484.45,315.72,486.49,315.72,488.53Z"/><path class="cls-4" d="M333.29,488.65c0,2-.05,3.92,0,5.87a1.08,1.08,0,0,1-1.39,1.34c-1-.07-2,0-3,0a0.78,0.78,0,0,1-.93-0.92q0-6.41,0-12.83a0.78,0.78,0,0,1,.94-0.91c1.08,0,2.16,0,3.24,0a0.91,0.91,0,0,1,1.12,1.1C333.26,484.42,333.29,486.54,333.29,488.65Z"/><path class="cls-4" d="M342.11,488.57c0,2,0,4.08,0,6.12a1,1,0,0,1-1.19,1.18c-1-.06-2.08,0-3.12,0a0.83,0.83,0,0,1-1-1q0-6.3,0-12.6a0.88,0.88,0,0,1,1.06-1.05c1,0,2.08,0,3.12,0a0.92,0.92,0,0,1,1.11,1.14c0,2.08,0,4.16,0,6.24h0Z"/><path class="cls-4" d="M345.58,488.47c0-2,0-4.07,0-6.11a1,1,0,0,1,1.18-1.17c1.07,0.06,2.16,0,3.23,0a0.73,0.73,0,0,1,.87.85q0,6.47,0,12.94a0.72,0.72,0,0,1-.86.86h-0.12c-4.28.26-4.28,0.26-4.3-4,0-1.12,0-2.24,0-3.35h0Z"/><path class="cls-4" d="M359.69,488.59c0,2,0,4.08,0,6.12a1,1,0,0,1-1.19,1.16c-1.08-.06-2.16,0-3.24,0a0.73,0.73,0,0,1-.87-0.85q0-6.48,0-13a0.71,0.71,0,0,1,.87-0.84h0.24c1.31,0.07,3-.54,3.85.23s0.25,2.49.32,3.79C359.74,486.35,359.69,487.47,359.69,488.59Z"/><path class="cls-4" d="M377.25,488.49c0,2,0,4.08,0,6.12,0,0.9-.22,1.33-1.21,1.26a23.7,23.7,0,0,0-3,0,0.91,0.91,0,0,1-1.1-1.13q0-6.24,0-12.48a0.86,0.86,0,0,1,1-1.07c1.08,0,2.16,0,3.24,0a0.86,0.86,0,0,1,1,1C377.24,484.33,377.26,486.41,377.25,488.49Z"/></svg>