<svg id="Layer_1" data-name="Layer 1" xmlns="http://www.w3.org/2000/svg" viewBox="0 0 1169.99 1066.93"><defs><style>.cls-1{fill:#ffb100;}.cls-1,.cls-2{stroke:#fff;}.cls-1,.cls-2,.cls-3,.cls-4,.cls-5,.cls-6,.cls-7{stroke-miterlimit:10;}.cls-1,.cls-2,.cls-5{stroke-width:1.72px;}.cls-2{fill:none;}.cls-3,.cls-4,.cls-8{fill:#393939;}.cls-3,.cls-4,.cls-5,.cls-6,.cls-7{stroke:#000;}.cls-3{stroke-width:1.4px;}.cls-4{stroke-width:1.22px;}.cls-5,.cls-6,.cls-7{fill:#f2f2f2;}.cls-6{stroke-width:2.11px;}.cls-7{stroke-width:1.68px;}.cls-10,.cls-8{font-size:66.23px;font-family:Roboto;}.cls-9{letter-spacing:-3px;}.cls-10{fill:#fff;letter-spacing:1px;}.cls-11{letter-spacing:-1px;}</style></defs><title>Untitled-2</title><rect class="cls-1" x="0.86" y="406.03" width="539.11" height="85.46"/><rect class="cls-1" x="0.86" y="406.03" width="89.85" height="170.91"/><rect class="cls-1" x="90.71" y="406.03" width="89.85" height="170.91"/><rect class="cls-1" x="180.56" y="406.03" width="89.85" height="170.91"/><rect class="cls-1" x="270.42" y="406.03" width="89.85" height="170.91"/><rect class="cls-1" x="360.27" y="406.03" width="89.85" height="170.91"/><rect class="cls-1" x="450.12" y="406.03" width="89.85" height="170.91"/><rect class="cls-2" x="0.86" y="406.03" width="539.11" height="85.46"/><rect class="cls-3" x="0.86" y="222.06" width="359.41" height="85.46"/><rect class="cls-4" x="0.86" y="222.06" width="89.85" height="85.46"/><rect class="cls-4" x="90.71" y="222.06" width="89.85" height="85.46"/><rect class="cls-4" x="180.56" y="222.06" width="89.85" height="85.46"/><rect class="cls-4" x="270.42" y="222.06" width="89.85" height="85.46"/><rect class="cls-5" x="539.97" y="73.55" width="628.96" height="22.92"/><rect class="cls-6" x="539.97" y="110.52" width="188.13" height="85.46"/><rect class="cls-6" x="980.81" y="110.52" width="188.13" height="85.46"/><rect class="cls-7" x="0.86" y="1009.26" width="179.7" height="56.83"/><rect class="cls-7" x="180.56" y="1009.26" width="179.7" height="56.83"/><rect class="cls-7" x="809.53" y="1009.26" width="179.7" height="56.83"/><rect class="cls-7" x="989.23" y="1009.26" width="179.7" height="56.83"/><text class="cls-8" transform="translate(0.86 386.14)"><tspan class="cls-9">T</tspan><tspan x="35.9" y="0">able A</tspan></text><text class="cls-10" transform="translate(24.54 472.33)">1</text><text class="cls-10" transform="translate(114.61 472.33)">2</text><text class="cls-10" transform="translate(205.11 472.33)">3</text><text class="cls-10" transform="translate(296.61 472.33)">4</text><text class="cls-10" transform="translate(384.61 472.33)">5</text><text class="cls-10" transform="translate(475.11 472.33)">6</text><text class="cls-10" transform="translate(24.54 558.83)">7</text><text class="cls-10" transform="translate(114.61 558.83)">8</text><text class="cls-10" transform="translate(205.11 558.83)">9</text><text class="cls-10" transform="translate(276.61 558.83)">10</text><text class="cls-10" transform="translate(370.11 558.83)">11</text><text class="cls-10" transform="translate(456.61 558.83)">12</text><rect class="cls-1" x="629.82" y="406.03" width="539.11" height="85.46"/><rect class="cls-1" x="629.82" y="406.03" width="89.85" height="170.91"/><rect class="cls-1" x="719.68" y="406.03" width="89.85" height="170.91"/><rect class="cls-1" x="809.53" y="406.03" width="89.85" height="170.91"/><rect class="cls-1" x="899.38" y="406.03" width="89.85" height="170.91"/><rect class="cls-1" x="989.23" y="406.03" width="89.85" height="170.91"/><rect class="cls-1" x="1079.08" y="406.03" width="89.85" height="170.91"/><rect class="cls-2" x="629.82" y="406.03" width="539.11" height="85.46"/><text class="cls-10" transform="translate(653.51 472.33)">1</text><text class="cls-10" transform="translate(743.58 472.33)">2</text><text class="cls-10" transform="translate(834.08 472.33)">3</text><text class="cls-10" transform="translate(925.58 472.33)">4</text><text class="cls-10" transform="translate(1013.58 472.33)">5</text><text class="cls-10" transform="translate(1104.08 472.33)">6</text><text class="cls-10" transform="translate(653.51 558.83)">7</text><text class="cls-10" transform="translate(743.58 558.83)">8</text><text class="cls-10" transform="translate(834.08 558.83)">9</text><text class="cls-10" transform="translate(905.58 558.83)">10</text><text class="cls-10" transform="translate(999.08 558.83)">11</text><text class="cls-10" transform="translate(1085.58 558.83)">12</text><rect class="cls-1" x="629.82" y="675.45" width="539.11" height="85.46"/><rect class="cls-1" x="629.82" y="675.45" width="89.85" height="170.91"/><rect class="cls-1" x="719.68" y="675.45" width="89.85" height="170.91"/><rect class="cls-1" x="809.53" y="675.45" width="89.85" height="170.91"/><rect class="cls-1" x="899.38" y="675.45" width="89.85" height="170.91"/><rect class="cls-1" x="989.23" y="675.45" width="89.85" height="170.91"/><rect class="cls-1" x="1079.08" y="675.45" width="89.85" height="170.91"/><rect class="cls-2" x="629.82" y="675.45" width="539.11" height="85.46"/><text class="cls-10" transform="translate(653.51 741.76)">1</text><text class="cls-10" transform="translate(743.58 741.76)">2</text><text class="cls-10" transform="translate(834.08 741.76)">3</text><text class="cls-10" transform="translate(925.58 741.76)">4</text><text class="cls-10" transform="translate(1013.58 741.76)">5</text><text class="cls-10" transform="translate(1104.08 741.76)">6</text><text class="cls-10" transform="translate(653.51 828.25)">7</text><text class="cls-10" transform="translate(743.58 828.25)">8</text><text class="cls-10" transform="translate(834.08 828.25)">9</text><text class="cls-10" transform="translate(905.58 828.25)">10</text><text class="cls-10" transform="translate(999.08 828.25)">11</text><text class="cls-10" transform="translate(1085.58 828.25)">12</text><rect class="cls-1" x="0.86" y="675.45" width="539.11" height="85.46"/><rect class="cls-1" x="0.86" y="675.45" width="89.85" height="170.91"/><rect class="cls-1" x="90.71" y="675.45" width="89.85" height="170.91"/><rect class="cls-1" x="180.56" y="675.45" width="89.85" height="170.91"/><rect class="cls-1" x="270.42" y="675.45" width="89.85" height="170.91"/><rect class="cls-1" x="360.27" y="675.45" width="89.85" height="170.91"/><rect class="cls-1" x="450.12" y="675.45" width="89.85" height="170.91"/><rect class="cls-2" x="0.86" y="675.45" width="539.11" height="85.46"/><text class="cls-10" transform="translate(24.54 741.76)">1</text><text class="cls-10" transform="translate(114.61 741.76)">2</text><text class="cls-10" transform="translate(205.11 741.76)">3</text><text class="cls-10" transform="translate(296.61 741.76)">4</text><text class="cls-10" transform="translate(384.61 741.76)">5</text><text class="cls-10" transform="translate(475.11 741.76)">6</text><text class="cls-10" transform="translate(24.54 828.25)">7</text><text class="cls-10" transform="translate(114.61 828.25)">8</text><text class="cls-10" transform="translate(205.11 828.25)">9</text><text class="cls-10" transform="translate(276.61 828.25)">10</text><text class="cls-10" transform="translate(370.11 828.25)">11</text><text class="cls-10" transform="translate(456.61 828.25)">12</text><text class="cls-8" transform="translate(0.86 185.03)">Admin<tspan class="cls-11" x="188.08" y="0"> </tspan><tspan class="cls-9" x="202.89" y="0">T</tspan><tspan x="238.78" y="0">able</tspan></text><text class="cls-8" transform="translate(629.82 386.14)"><tspan class="cls-9">T</tspan><tspan x="35.9" y="0">able B</tspan></text><text class="cls-8" transform="translate(599.43 56.66)">P<tspan x="40.78" y="0">r</tspan><tspan x="62.41" y="0">ojec</tspan><tspan x="182.94" y="0">t</tspan><tspan x="203.57" y="0">or / Pri</tspan><tspan x="399.34" y="0">z</tspan><tspan x="431.03" y="0">es</tspan></text><text class="cls-8" transform="translate(0 657.72)"><tspan class="cls-9">T</tspan><tspan x="35.9" y="0">able C</tspan></text><text class="cls-8" transform="translate(0.86 980.29)">Ent<tspan class="cls-11" x="95.33" y="0">r</tspan><tspan x="116.32" y="0">ance</tspan></text><text class="cls-8" transform="translate(809.53 980.29)">Rest<tspan x="131.07" y="0">r</tspan><tspan x="152.7" y="0">ooms</tspan></text><text class="cls-8" transform="translate(634.04 657.72)"><tspan class="cls-9">T</tspan><tspan x="35.9" y="0">able D</tspan></text></svg>