<svg id="Layer_1" data-name="Layer 1" xmlns="http://www.w3.org/2000/svg" viewBox="0 0 512 274.29"><defs><style>.cls-1{fill:#fff;}</style></defs><title>steam</title><path class="cls-1" d="M429.72,36.57A45.72,45.72,0,1,1,384,82.29,45.71,45.71,0,0,1,429.72,36.57ZM64,18.29a64,64,0,0,1,64,64L127.66,89l135.45,70.25a63.67,63.67,0,0,1,38.62-13l45.7-64a82.29,82.29,0,1,1,82.29,82.29l-64,45.72a64,64,0,0,1-128,0c0-.81,0-1.6,0-2.4L99,135.91A64,64,0,1,1,64,18.29ZM320.71,189.12A27.43,27.43,0,0,1,295.81,238L256.6,217.66A45.7,45.7,0,1,0,282,169ZM64,36.57a45.72,45.72,0,1,0,14.91,88.95L48.56,109.78A27.43,27.43,0,1,1,73.46,60.9l36.18,18.76A45.72,45.72,0,0,0,64,36.57ZM429.72,18.29a64,64,0,1,0,64,64A64,64,0,0,0,429.72,18.29Z"/></svg>