<svg id="Layer_1" data-name="Layer 1" xmlns="http://www.w3.org/2000/svg" viewBox="0 0 1224.2 1279.49"><defs><style>.cls-1{fill:#fff;}</style></defs><title>Untitled-1</title><path class="cls-1" d="M83.41,0H1223.59c0.17,3.85.45,7.1,0.45,10.36q0,379.48.15,759c0,6.56-2,11.1-6.59,15.67q-160.34,160-320.33,320.26c-4.86,4.87-9.65,7-16.53,6.93-76-.22-152,0-228-0.33-9,0-15.38,2.3-21.82,8.83-49.89,50.51-100.26,100.54-150.23,151-5.63,5.68-11.29,7.91-19.24,7.85-47.66-.34-95.33-0.17-143-0.17H306.25c-0.42-14.59-.16-28.44-0.2-42.28,0-13.67,0-27.33,0-41v-83.72H0.11c0-4.47,0-8,0-11.51q0-47.5,0-95,0-386-.1-771.94a67.1,67.1,0,0,1,4.44-24.28q37.78-100,75.22-200.13C80.82,6.4,82.08,3.36,83.41,0ZM195.07,917.83H445.15c0,4.69,0,8.58,0,12.48q0,70.49,0,141c0,3.37.3,6.75,0.55,12.06,4.35-4.19,7-6.65,9.55-9.21q74.59-74.58,149-149.31c5.42-5.46,10.86-7.41,18.35-7.4,95.32,0.2,190.63.08,285.95,0.25,6.48,0,11.12-1.8,15.74-6.45q91-91.44,182.36-182.44c4.44-4.42,6-8.81,6-14.89q-0.19-296.45-.13-592.89c0-3.23-.3-6.47-0.45-9.52-12.2-2.1-909.74-1.61-917.07.43V917.83Z"/><path class="cls-1" d="M501.43,333.77H610.53c2,7.41,2.77,313.35,1,331.69-6.87,2.1-95.74,2.76-109.3.81C500.16,659.18,499.33,352.61,501.43,333.77Z"/><path class="cls-1" d="M807.41,333.79H916.48c2,7.44,2.79,312.64,1,331.64-6.83,2.13-95.62,2.82-109.27.84C806.15,659.12,805.31,353.15,807.41,333.79Z"/></svg>