<svg id="Desktop" xmlns="http://www.w3.org/2000/svg" viewBox="0 0 37.81 30.74"><defs><style>.cls-1{fill:#ffb100;}</style></defs><title>twitter</title><path class="cls-1" d="M37.86,3.64A15.51,15.51,0,0,1,33.4,4.86,7.78,7.78,0,0,0,36.82.56a15.53,15.53,0,0,1-4.93,1.89A7.77,7.77,0,0,0,18.65,9.53a22,22,0,0,1-16-8.12,7.78,7.78,0,0,0,2.4,10.37,7.73,7.73,0,0,1-3.52-1v0.1A7.77,7.77,0,0,0,7.76,18.5a7.82,7.82,0,0,1-2,.27,7.71,7.71,0,0,1-1.46-.14A7.78,7.78,0,0,0,11.55,24,15.58,15.58,0,0,1,1.9,27.35a16,16,0,0,1-1.85-.11A22,22,0,0,0,12,30.73c14.28,0,22.1-11.83,22.1-22.1v-1A15.82,15.82,0,0,0,37.86,3.64Z" transform="translate(-0.05 0.01)"/></svg>