<svg id="Capa_1" data-name="Capa 1" xmlns="http://www.w3.org/2000/svg" viewBox="0 0 423.44 512"><defs><style>.cls-1{fill:#fff;}</style></defs><title>internet</title><path class="cls-1" d="M416,264.57a53.65,53.65,0,0,0-45.72-41.71q-52.57-5.71-158.57-5.71T53.43,222.86A51.85,51.85,0,0,0,24,236.28,54.27,54.27,0,0,0,7.43,264.57Q0,297.72,0,364.57q0,68,7.43,100a52.24,52.24,0,0,0,16.43,28.28A50.65,50.65,0,0,0,53.15,506q52.58,6,158.58,6t158.57-6a50,50,0,0,0,29.15-13.14A54.22,54.22,0,0,0,416,464.58q7.43-33.15,7.43-100Q423.44,296.57,416,264.57ZM120.87,293.43H90.3V456H61.73V293.43h-30V266.58h89.14v26.86h0ZM198,456H172.58V440.57Q157.15,458,143.43,458q-13.14,0-16.57-10.57-2.28-6.86-2.29-20.86V314.86H150v104q0,9.14.29,10,0.86,6,6,6,7.71,0,16.29-12v-108H198V456h0Zm97.14-42.29q0,20.86-2.56,28.58Q287.72,458,272.3,458q-13.72,0-26.58-15.71V456H220.3V266.58h25.42v62Q258,313.15,272.3,313.15q15.43,0,20.29,16,2.56,7.43,2.56,28.28v56.28Zm96.57-23.43H340.58v24.86q0,19.72,13.14,19.71,9.43,0,11.43-10.29,0.56-2.86.57-17.42h26v3.71q0,14-.57,16.58a34.59,34.59,0,0,1-6,15.42Q374.87,458,354.29,458q-19.7,0-30.86-14.57-8.28-10.57-8.28-33.14V360.85q0-22.57,8-33.14,11.15-14.57,30.58-14.57,19.15,0,30.29,14.57,7.72,10.57,7.72,33.14v29.43h0Z"/><path class="cls-1" d="M258.58,336.29q-6.57,0-12.86,6.29v86q6.29,6.28,12.86,6.28,11.14,0,11.15-19.14V355.43Q269.72,336.29,258.58,336.29Z"/><path class="cls-1" d="M353.44,336.29q-12.86,0-12.86,19.42v13.14H366.3V355.71Q366.3,336.28,353.44,336.29Z"/><path class="cls-1" d="M104.3,114v77.43h28.57V114L167.44,0H138.3L118.87,75.14,98.59,0H68.3q8,24,18.57,53.43Q100.3,92.86,104.3,114Z"/><path class="cls-1" d="M205.72,193.43q19.72,0,30.28-14.57,8-10.57,8-33.71v-50q0-22.85-8-33.43-10.57-14.57-30.28-14.57-19.15,0-30,14.57-8,10.57-8,33.43v50q0,22.85,8,33.71Q186.58,193.43,205.72,193.43ZM193.44,90q0-19.72,12.29-19.72T218,90v60q0,20-12.28,20t-12.29-20V90Z"/><path class="cls-1" d="M284.29,193.43q14.29,0,29.43-17.72v15.71h26V48.86h-26V157.71Q305.15,170,297.43,170q-5.15,0-6-6.28-0.29-.57-0.29-10V48.86h-26V161.43q0,14.57,2.29,21.43Q271.15,193.43,284.29,193.43Z"/></svg>