<svg id="Layer_1" data-name="Layer 1" xmlns="http://www.w3.org/2000/svg" viewBox="0 0 411.98 407.65"><defs><style>.cls-1{fill:#ffb100;}.cls-2{fill:#ff9f00;}</style></defs><title>gears</title><path class="cls-1" d="M244.17,375.15c-9.89-4.65-19.31-9.24-28.9-13.45a8.91,8.91,0,0,0-6.23.16c-8.17,3.27-16.26,6.74-24.22,10.49a10,10,0,0,0-4.8,4.83C176.63,386,173.59,395,170.68,404c-0.87,2.68-2.1,3.64-4.93,3.59-9.5-.16-19-0.19-28.5,0-3.06.06-4.41-1.05-5.33-3.87-3-9.17-6.13-18.3-9.48-27.34a7.87,7.87,0,0,0-3.78-3.88c-8.11-3.81-16.3-7.49-24.6-10.85a9.61,9.61,0,0,0-6.72-.18c-8.54,3.71-16.9,7.85-25.28,11.92-2.09,1-3.63,1.53-5.64-.54-7.55-7.76-15.33-15.28-23.33-23.2,4.37-9.31,8.54-18.51,13-27.55,1.58-3.17,1.35-5.55-.26-8.74-3.74-7.4-6.63-15.22-10.23-22.7-1-2.1-3-4.42-5-5.21-8.84-3.41-17.85-6.42-26.89-9.27-3-.93-3.78-2.39-3.73-5.32q0.25-14,0-28c-0.05-3,.8-4.44,3.74-5.38,9-2.88,17.92-6.2,26.94-9.12,2.8-.91,4.12-2.39,5.24-5.2A208.56,208.56,0,0,1,46.1,201c1.88-3.48,2-6.09.25-9.51C42.4,183.84,39,175.88,35,168.17c-1.42-2.79-1.39-4.57,1-6.85q10.15-9.63,19.8-19.79c2.12-2.23,3.8-2.36,6.42-1,8.32,4.19,16.69,8.29,25.22,12a9.93,9.93,0,0,0,6.74,0c7.8-2.84,15.35-6.38,23.21-9.06,3.08-1,4.62-2.49,5.62-5.43,2.78-8.18,5.95-16.23,8.73-24.41,1-2.93,2.4-4.18,5.68-4.1,9.33,0.23,18.67.19,28,0,3-.06,4.39.85,5.36,3.75,2.85,8.51,5.88,17,9.26,25.29,0.77,1.9,3,3.67,5,4.52,7.93,3.4,16,6.53,24.11,9.47a8.58,8.58,0,0,0,5.85-.07c8.66-3.86,17.22-8,25.69-12.2,2.53-1.27,4-1,6,1q10,10.5,20.37,20.62c2,1.93,1.8,3.4.71,5.61-4.2,8.5-8.38,17-12.18,25.7a10,10,0,0,0,.07,6.7c2.77,7.82,6.1,15.44,8.88,23.26,1,2.75,2.23,4.34,5.1,5.3,8.35,2.81,16.54,6.11,24.86,9,2.58,0.9,3.66,2.13,3.61,5-0.18,9.66-.14,19.33,0,29,0,2.56-.79,3.84-3.28,4.7-8.49,2.93-17,6-25.27,9.34a9.73,9.73,0,0,0-4.7,4.89c-3.37,8.12-6.42,16.38-9.32,24.68a8.1,8.1,0,0,0,.23,5.47c3.89,8.65,8,17.19,12.17,25.71,1,2.14,1.48,3.68-.55,5.65C259.64,359.48,252.07,367.22,244.17,375.15Zm-33.43-118c0.08-32.71-26.25-59.45-58.64-59.55-33.24-.1-59.91,25.93-60,58.59-0.11,33.4,26.09,60,59.1,60.07A59.19,59.19,0,0,0,210.74,257.13Z"/><path class="cls-2" d="M255,124.12c-2.32-5.62-4.69-10.92-6.63-16.38-0.46-1.3.45-3.13,0.87-4.68a3.19,3.19,0,0,1,1.07-1c12.53-11.41,12.58-11.41,11.92-27.75-0.06-1.39-1.24-3-2.32-4-3.33-3.25-7.05-6.12-10.23-9.51-1-1.08-1.13-3.32-1-5,0.07-1.41,1-2.77,1.6-4.16,5.06-12.23,5.08-12.4,18.48-11.14,4.69,0.44,8.45-.09,10.86-4.55a3.87,3.87,0,0,1,1.32-1.49c8.48-5,8.81-12.75,7.22-21.09-0.88-4.61.4-7.35,5.26-8.67,4.6-1.25,9.44-5.4,13.31-4.52s7,6.19,10,10c2.56,3.26,5.39,4.66,9.4,3.81a4.44,4.44,0,0,1,2-.09c10.22,2.76,16.08-3.36,21.22-10.6,2.43-3.42,5-4.09,8.72-2.14,4.4,2.28,10.82,3,13.08,6.46s0.8,9.63.22,14.53c-0.47,4,.57,6.75,3.89,8.8a3.31,3.31,0,0,1,1.07,1c5.23,8.6,13.12,10,22.17,8.16,4.68-.95,7.35.75,8.68,5.47s5.16,9.38,4.33,13.33c-0.79,3.73-6,6.76-9.67,9.59-3.44,2.66-4.94,5.62-3.73,9.83a1,1,0,0,1,0,.5c-2.82,10.81,3.12,17.41,11.11,23,2.9,2,3.67,4.08,1.87,7.44-2,3.79-3.17,8.06-5.17,11.87-0.7,1.33-2.8,1.93-4.27,2.85a0.7,0.7,0,0,1-.49,0c-12-3.49-20.66,1.47-27.57,10.78a8.52,8.52,0,0,0-1.91,4.67c0.08,5.64.57,11.27,0.93,17.29-5.46,2.34-10.88,4.79-16.42,6.91-1,.39-2.62-0.37-3.77-1a8.43,8.43,0,0,1-2-2.22c-9.72-11.37-9.72-11.43-24.65-10.59a7.73,7.73,0,0,0-4.15,2.22,131.73,131.73,0,0,0-9.64,9.41c-2.19,2.44-4.16,3.19-7.32,1.71a123.76,123.76,0,0,0-13-5c-2.68-.9-3.85-2-3.64-5.27,1-16.91.95-17-11.47-28.36a6.83,6.83,0,0,0-4.44-1.34C266.38,123.33,260.75,123.78,255,124.12Zm108.74-42.3a33.83,33.83,0,1,0-67.66.37A33.83,33.83,0,1,0,363.74,81.82Z"/></svg>