<svg id="Layer_1" data-name="Layer 1" xmlns="http://www.w3.org/2000/svg" viewBox="0 0 262.08 112.38"><defs><style>.cls-1{fill:#546e7a;}</style></defs><title>Untitled-2</title><path class="cls-1" d="M33.56,104.43l29.2-74.77h4.35L35.51,110.88h-4L0,29.65H4.35Z"/><path class="cls-1" d="M133.41,77h18.92v4.05H133.41v29.8h-4.05V81.08h-53V78.83L128.53,1.58h4.88V77ZM82.66,77h46.7V6.46L123,16.82Z"/><path class="cls-1" d="M165.39,107.2a4.1,4.1,0,0,1,1.2-3,3.92,3.92,0,0,1,2.93-1.24,4.23,4.23,0,0,1,4.2,4.2,3.92,3.92,0,0,1-1.24,2.93,4.11,4.11,0,0,1-3,1.2A4.1,4.1,0,0,1,165.39,107.2Z"/><path class="cls-1" d="M262.08,66.29A80.65,80.65,0,0,1,260,85.55,43.61,43.61,0,0,1,253.75,100a28.31,28.31,0,0,1-10.21,9.16,32.32,32.32,0,0,1-28,0A28.94,28.94,0,0,1,205.25,100a43.7,43.7,0,0,1-6.38-14.49,77.91,77.91,0,0,1-2.18-19.26V46.17A79.4,79.4,0,0,1,198.83,27a44.08,44.08,0,0,1,6.31-14.56,28.52,28.52,0,0,1,10.25-9.2,32.23,32.23,0,0,1,28,0,28.42,28.42,0,0,1,10.29,9.2A44.08,44.08,0,0,1,259.94,27a79.35,79.35,0,0,1,2.14,19.22V66.29ZM258,46.17A77.63,77.63,0,0,0,256.26,29a41.54,41.54,0,0,0-5.33-13.33,26.41,26.41,0,0,0-34.2-8.6,25.06,25.06,0,0,0-8.93,8.6A42,42,0,0,0,202.51,29a77.51,77.51,0,0,0-1.76,17.15v20a76.26,76.26,0,0,0,1.76,17,41.86,41.86,0,0,0,5.37,13.36,26.13,26.13,0,0,0,9,8.75,27.16,27.16,0,0,0,25.26,0,25.62,25.62,0,0,0,8.9-8.75,42.39,42.39,0,0,0,5.25-13.36,77.93,77.93,0,0,0,1.73-17v-20Z"/></svg>